<svg width="809" height="261" viewBox="0 0 809 261" fill="none" xmlns="http://www.w3.org/2000/svg">
<path d="M115.375 3.94998H165.6V158.125H204.625V201H165.6V257H116.425L116.6 201H0.0500005V159L115.375 3.94998ZM47.3 158.125H116.6V65.375L47.3 158.125ZM401.907 0.449986C432.007 0.449986 455.749 11.7083 473.132 34.225C490.516 56.7417 499.207 89 499.207 131C499.207 172.883 490.574 205.025 473.307 227.425C456.157 249.708 432.357 260.85 401.907 260.85C371.224 260.85 347.249 249.708 329.982 227.425C312.832 205.142 304.257 173.058 304.257 131.175C304.257 89.0583 312.949 56.7417 330.332 34.225C347.832 11.7083 371.691 0.449986 401.907 0.449986ZM401.907 219.025C417.074 219.025 428.099 212.317 434.982 198.9C441.982 185.483 445.482 162.908 445.482 131.175C445.482 98.8583 441.924 75.7 434.807 61.7C427.691 47.7 416.666 40.7 401.732 40.7C386.799 40.7 375.657 47.7583 368.307 61.875C361.074 75.9917 357.457 99.0917 357.457 131.175C357.457 162.675 361.074 185.192 368.307 198.725C375.541 212.258 386.741 219.025 401.907 219.025ZM718.988 3.94998H769.213V158.125H808.238V201H769.213V257H720.038L720.213 201H603.663V159L718.988 3.94998ZM650.913 158.125H720.213V65.375L650.913 158.125Z" fill="white"/>
</svg>
