<?xml version="1.0" encoding="utf-8"?>
<!-- Generator: Adobe Illustrator 24.2.3, SVG Export Plug-In . SVG Version: 6.00 Build 0)  -->
<svg version="1.1" id="Layer_1" xmlns="http://www.w3.org/2000/svg" xmlns:xlink="http://www.w3.org/1999/xlink" x="0px" y="0px"
	 viewBox="0 0 1080 1080" style="enable-background:new 0 0 1080 1080;" xml:space="preserve">
<style type="text/css">
	.st0{fill:none;stroke:url(#SVGID_1_);stroke-width:27;}
	.st1{fill:url(#SVGID_2_);}
</style>
<g>
	
		<linearGradient id="SVGID_1_" gradientUnits="userSpaceOnUse" x1="994.9787" y1="25.4562" x2="99.1621" y2="1038.5901" gradientTransform="matrix(1 0 0 -1 0 1080)">
		<stop  offset="0" style="stop-color:#5AC8FA"/>
		<stop  offset="0.5235" style="stop-color:#AF52DE;stop-opacity:0.9222"/>
		<stop  offset="0.8186" style="stop-color:#FF2D55;stop-opacity:0.74"/>
		<stop  offset="1" style="stop-color:#FF3B30"/>
	</linearGradient>
	<path class="st0" d="M540.1,20L540.1,20c287.3,0,520.2,232.9,520.2,520.2l0,0c0,287.3-232.9,520.2-520.2,520.2l0,0
		C252.9,1060.3,20,827.4,20,540.1l0,0C20,252.9,252.9,20,540.1,20z"/>
	
		<linearGradient id="SVGID_2_" gradientUnits="userSpaceOnUse" x1="39.584" y1="1023.5162" x2="992.3573" y2="59.7915" gradientTransform="matrix(1 0 0 -1 0 1080)">
		<stop  offset="6.354110e-02" style="stop-color:#FB413E"/>
		<stop  offset="0.3816" style="stop-color:#FF3C32"/>
		<stop  offset="0.52" style="stop-color:#AD69E3;stop-opacity:0.75"/>
		<stop  offset="0.6293" style="stop-color:#5DC4F9"/>
		<stop  offset="0.9627" style="stop-color:#60C2F8"/>
	</linearGradient>
	<path class="st1" d="M717.5,265c10-1.8,18.9,0.5,26.7,6.8s11.6,14.6,11.6,24.6v351.1c0,32.4-9.1,57.7-27.4,76
		c-18.3,17.8-43.3,26.7-75.3,26.7c-21.9,0-39.9-5.7-54.1-17.1c-14.1-11.9-21.2-26.7-21.2-44.5c0-22.4,8.9-41.1,26.7-56.1
		c17.8-15.1,40.8-22.6,69.1-22.6c10.5,0,21.7,1.8,33.5,5.5c0.5,0,0.9-0.2,1.4-0.7c0.5,0,0.7-0.2,0.7-0.7V388.2
		c0-1.4-0.7-2.5-2.1-3.4c-1.4-1.4-2.7-1.8-4.1-1.4l-256.7,49.3c-3.7,0.9-5.5,3.2-5.5,6.8v276.5c0,32.4-9.1,57.7-27.4,76
		c-18.3,17.8-43.3,26.7-75.3,26.7c-21.9,0-39.9-5.9-54.1-17.8c-14.1-11.4-21.2-26-21.2-43.8c0-22.4,8.9-41.1,26.7-56.1
		c17.8-15.1,40.8-22.6,69.1-22.6c10.5,0,21.7,1.8,33.5,5.5c0.5,0,0.9-0.2,1.4-0.7c0.5,0,0.7-0.2,0.7-0.7V364.9
		c0-11.4,3.4-21.4,10.3-30.1c7.3-9.1,16.4-14.6,27.4-16.4L717.5,265z"/>
</g>
</svg>
