<svg width="2493" height="2475" viewBox="0 0 2493 2475" fill="none" xmlns="http://www.w3.org/2000/svg">
<path d="M185.144 104.294C198.784 49.0911 253.889 14.7771 309.447 26.8905L2154.94 429.269C2211.6 441.622 2247.52 497.568 2235.17 554.227L2102.11 1164.5C2089.8 1220.93 2034.59 1256.89 1978.06 1245.08C1352.82 1114.43 422.259 934.691 108.062 874.325C48.9456 862.967 12.1325 804.506 26.5721 746.066L185.144 104.294Z" fill="#1C1D39"/>
<path d="M2117.36 1275.24L2112.52 1252.59C2113.83 1240.78 2123.92 1190.53 2121.83 1185.87C2119.74 1181.2 2114.7 1165.3 2113.8 1157.06C2112.9 1148.82 2100.76 1154.7 2098.38 1163.84C2096.01 1172.98 2095.04 1192.7 2102.21 1197.41C2099.66 1214.43 2086.53 1260.16 2088.62 1268.79C2090.71 1277.43 2117.36 1275.24 2117.36 1275.24Z" fill="#F1B8B8"/>
<path d="M2031.07 1320.94C2031.07 1320.94 2003.28 1308.98 2001.26 1305.11C1999.24 1301.25 1980.06 1254.15 1974.98 1248.57C1969.89 1242.99 1973.59 1237.81 1960.82 1235.33C1948.04 1232.85 1942.36 1220.01 1939.51 1223.65C1936.67 1227.29 1934.66 1239.93 1947.76 1248.87C1956.92 1254.79 1960.32 1256.05 1960.32 1256.05C1960.32 1256.05 1981.04 1317.37 1986.33 1321.86C1991.62 1326.35 2018.37 1343.47 2018.37 1343.47L2031.07 1320.94Z" fill="#F1B8B8"/>
<path d="M2028.56 1681.51C2028.56 1681.51 2019.93 1696.23 2025.91 1700.41C2031.89 1704.6 2039.08 1703.64 2043.06 1696.63C2047.03 1689.61 2052.48 1682.74 2055.91 1681C2059.34 1679.26 2069.72 1673.42 2067.89 1657.19C2066.47 1647.25 2054.39 1647.35 2051.27 1648.02C2048.16 1648.68 2038.78 1649.88 2035.27 1649.53C2031.68 1670.74 2028.56 1681.51 2028.56 1681.51Z" fill="white"/>
<path d="M2078.96 1445.14C2078.96 1445.14 2064.49 1507.79 2060.82 1557.58C2060.51 1601.12 2060.5 1648.24 2060.5 1648.24C2060.5 1648.24 2051.33 1660.49 2035.93 1651.45C2030.98 1608.51 2022.07 1541.94 2024.59 1516.96L2027.12 1491.99L2078.96 1445.14Z" fill="#3D3E51"/>
<path d="M1957.54 1667.46C1957.54 1667.46 1960.46 1674.31 1949.11 1682.44C1937.76 1690.58 1929.35 1695.15 1933.02 1702.28C1936.69 1709.41 1946.84 1707.9 1952.27 1705.18C1957.7 1702.47 1962.6 1697.51 1970.18 1695.37C1977.77 1693.22 1994.93 1686.27 1995.06 1676.79C1994.76 1671.08 1981.73 1660.23 1976.52 1653.87L1957.54 1667.46Z" fill="white"/>
<path d="M2080.78 1445.15C2080.78 1445.15 2075.32 1482.93 2053.65 1486.8L2031.98 1490.68C2031.98 1490.68 2013.32 1551.06 2010.85 1561.75C2008.39 1572.43 1989.17 1668.96 1989.17 1668.96C1979.48 1677.41 1961.75 1670.92 1960.22 1664.81C1971.6 1579.71 1985.22 1470.86 1999.44 1437.99L2080.78 1445.15Z" fill="#454A64"/>
<path d="M2080.55 1326.63C2069.64 1329.62 2057.17 1331.28 2047.74 1327.77C2038.32 1324.26 2029.51 1317.39 2022.93 1310.33C2014.71 1311.16 2003.59 1317.21 1998.72 1335.85C2004.73 1342.16 2024.73 1360.63 2024.4 1363.15C2024.05 1365.66 2009.58 1410.17 2005.13 1416.57C2000.69 1422.97 1981.9 1450.98 1992.5 1465.57C2003.11 1480.16 2038.16 1473.94 2047.74 1473C2057.32 1472.06 2078.58 1459.95 2083.07 1450.94C2087.55 1441.93 2106.54 1386.34 2112.86 1375.31C2119.17 1364.28 2129.14 1342.28 2129.72 1328.59C2130.3 1314.9 2119.5 1299 2119.5 1299L2080.55 1326.63Z" fill="#3D3E51"/>
<path d="M2089.17 1323.36C2088.95 1323.12 2088.74 1322.9 2088.53 1322.68L2107.81 1293.08L2084.66 1265.74C2084.66 1265.74 2073.6 1270.54 2066.89 1281.02C2060.14 1288.64 2047.63 1297.51 2062.83 1314.11C2067.38 1319.09 2065.19 1328.29 2065.19 1328.29L2062.77 1328.66C2061.76 1330.5 2067.39 1336.35 2076.31 1337.16C2085.22 1337.97 2097.54 1332.82 2089.17 1323.36Z" fill="#F1B8B8"/>
<path d="M2074.33 1297.46L2082.75 1294.55C2082.75 1294.55 2090.05 1295.74 2089.72 1301.58C2089.12 1305.23 2084.95 1306.2 2081.67 1305.61C2078.85 1314.85 2082.17 1321.66 2089.17 1323.36C2094.24 1322.69 2116.62 1321.45 2119.92 1304.43C2123.79 1299.52 2130.49 1286.23 2108.91 1265.78C2101.68 1259.65 2096.53 1253.84 2090.53 1255.08C2081.34 1258.47 2084.73 1271.02 2088.17 1277.12C2090.07 1280.73 2081.51 1290.42 2073.06 1293.44L2074.33 1297.46Z" fill="#3D374B"/>
<path d="M920.6 979.209C920.129 979.116 919.856 979.013 919.78 978.9C919.7 978.811 919.711 978.507 919.814 977.989L924.268 955.457C924.361 954.987 924.45 954.723 924.535 954.666C924.647 954.591 924.927 954.597 925.375 954.685L936.782 956.941C937.041 956.992 937.185 957.069 937.213 957.173C937.246 957.252 937.242 957.398 937.2 957.61L936.697 960.153C936.651 960.389 936.583 960.546 936.494 960.627C936.409 960.683 936.261 960.691 936.049 960.649L927.608 958.98L926.345 965.372L934.326 966.95C934.679 967.02 934.819 967.243 934.744 967.62L934.241 970.163C934.162 970.563 933.946 970.728 933.593 970.659L925.612 969.081L924.229 976.073L933.094 977.826C933.423 977.891 933.548 978.124 933.469 978.524L932.967 981.067C932.892 981.443 932.69 981.599 932.361 981.534L920.6 979.209ZM953.127 985.639C952.868 985.588 952.693 985.541 952.604 985.499C952.514 985.457 952.427 985.342 952.342 985.154L949.276 974.86L947.051 974.42L945.222 983.673C945.171 983.932 944.992 984.031 944.686 983.971L941.684 983.377C941.402 983.321 941.286 983.164 941.337 982.905L946.029 959.172C946.052 959.054 946.106 958.967 946.191 958.911C946.299 958.859 946.412 958.844 946.529 958.867L951.792 959.908C954.381 960.42 956.234 961.508 957.348 963.171C958.467 964.812 958.813 966.715 958.385 968.881C958.073 970.458 957.438 971.752 956.48 972.761C955.55 973.752 954.417 974.408 953.081 974.731L956.636 985.893C956.769 986.212 956.611 986.328 956.164 986.24L953.127 985.639ZM949.257 963.26L947.777 970.747L949.508 971.089C950.826 971.35 951.911 971.246 952.762 970.778C953.617 970.287 954.171 969.405 954.422 968.134C954.678 966.839 954.523 965.83 953.956 965.106C953.39 964.383 952.554 963.912 951.447 963.693L949.257 963.26ZM975.199 990.003C974.94 989.952 974.766 989.905 974.677 989.863C974.587 989.821 974.5 989.705 974.415 989.517L971.349 979.223L969.124 978.783L967.295 988.036C967.243 988.295 967.065 988.395 966.759 988.334L963.757 987.741C963.474 987.685 963.359 987.527 963.41 987.268L968.102 963.536C968.125 963.418 968.179 963.331 968.263 963.274C968.372 963.222 968.484 963.208 968.602 963.231L973.864 964.271C976.454 964.783 978.306 965.871 979.421 967.535C980.54 969.175 980.886 971.078 980.457 973.244C980.145 974.822 979.511 976.115 978.553 977.125C977.623 978.115 976.49 978.772 975.154 979.095L978.709 990.256C978.841 990.576 978.684 990.692 978.237 990.603L975.199 990.003ZM971.33 967.623L969.85 975.111L971.581 975.453C972.899 975.713 973.984 975.61 974.835 975.142C975.69 974.65 976.244 973.769 976.495 972.498C976.751 971.203 976.596 970.193 976.029 969.47C975.463 968.746 974.626 968.275 973.52 968.056L971.33 967.623ZM992.174 993.982C989.655 993.484 988.034 991.904 987.313 989.242C986.592 986.579 986.592 983.423 987.313 979.774C987.467 978.997 987.784 977.824 988.266 976.256C988.775 974.668 989.436 973.246 990.247 971.987C991.087 970.71 992.064 969.728 993.178 969.043C994.315 968.363 995.661 968.177 997.215 968.484C998.204 968.679 999.045 969.066 999.738 969.643C1000.44 970.197 1000.99 970.881 1001.39 971.694C1001.79 972.484 1002.07 973.37 1002.22 974.354C1002.39 975.342 1002.48 976.375 1002.49 977.453C1002.49 978.53 1002.43 979.606 1002.29 980.68C1002.15 981.753 1002.06 982.419 1002 982.678C1001.72 984.138 1001.25 985.697 1000.6 987.355C999.957 989.013 999.212 990.371 998.367 991.427C997.546 992.488 996.627 993.236 995.612 993.671C994.591 994.13 993.445 994.234 992.174 993.982ZM996.432 972.256C995.867 972.144 995.312 972.23 994.767 972.514C994.25 972.778 993.747 973.278 993.259 974.014C992.776 974.725 992.315 975.698 991.875 976.933C991.459 978.171 991.139 979.356 990.915 980.486C990.687 981.64 990.53 982.868 990.444 984.172C990.381 985.481 990.435 986.568 990.606 987.434C990.782 988.276 991.057 988.93 991.429 989.395C991.831 989.841 992.314 990.12 992.879 990.232C993.42 990.339 993.95 990.26 994.467 989.995C995.012 989.712 995.526 989.214 996.01 988.502C996.497 987.767 996.949 986.78 997.366 985.541C997.805 984.307 998.139 983.113 998.367 981.959C998.591 980.829 998.734 979.61 998.797 978.301C998.883 976.997 998.839 975.924 998.663 975.082C998.491 974.216 998.205 973.56 997.804 973.114C997.431 972.649 996.974 972.363 996.432 972.256ZM1019.35 998.73C1019.09 998.679 1018.91 998.632 1018.82 998.59C1018.73 998.548 1018.65 998.433 1018.56 998.245L1015.49 987.95L1013.27 987.511L1011.44 996.764C1011.39 997.023 1011.21 997.122 1010.9 997.061L1007.9 996.468C1007.62 996.412 1007.5 996.255 1007.56 995.996L1012.25 972.263C1012.27 972.145 1012.32 972.058 1012.41 972.001C1012.52 971.949 1012.63 971.935 1012.75 971.958L1018.01 972.998C1020.6 973.51 1022.45 974.598 1023.57 976.262C1024.69 977.902 1025.03 979.805 1024.6 981.971C1024.29 983.549 1023.66 984.842 1022.7 985.852C1021.77 986.842 1020.64 987.499 1019.3 987.822L1022.85 998.983C1022.99 999.303 1022.83 999.419 1022.38 999.33L1019.35 998.73ZM1015.48 976.351L1014 983.838L1015.73 984.18C1017.04 984.44 1018.13 984.337 1018.98 983.869C1019.84 983.378 1020.39 982.496 1020.64 981.225C1020.9 979.93 1020.74 978.921 1020.17 978.197C1019.61 977.473 1018.77 977.002 1017.67 976.783L1015.48 976.351ZM1035.89 1004.72C1035.06 1004.55 1034.41 1004.12 1033.94 1003.41C1033.47 1002.71 1033.31 1001.94 1033.48 1001.12C1033.64 1000.3 1034.07 999.66 1034.77 999.211C1035.48 998.739 1036.24 998.584 1037.07 998.747C1037.89 998.91 1038.53 999.342 1038.98 1000.04C1039.45 1000.72 1039.61 1001.48 1039.45 1002.3C1039.28 1003.12 1038.85 1003.77 1038.14 1004.24C1037.46 1004.72 1036.71 1004.88 1035.89 1004.72ZM1086.64 990.419L1082.61 1010.8C1082.55 1011.08 1082.39 1011.19 1082.1 1011.14L1078.96 1010.52C1078.68 1010.46 1078.56 1010.29 1078.62 1010.01L1082.65 989.63L1077.1 988.534C1076.99 988.51 1076.89 988.454 1076.81 988.365C1076.75 988.257 1076.74 988.132 1076.77 987.991L1077.33 985.165C1077.35 985.048 1077.41 984.961 1077.49 984.904C1077.6 984.828 1077.72 984.802 1077.84 984.825L1092.95 987.814C1093.07 987.837 1093.15 987.903 1093.21 988.011C1093.29 988.1 1093.31 988.204 1093.29 988.321L1092.73 991.147C1092.67 991.453 1092.5 991.578 1092.22 991.522L1086.64 990.419ZM1096.23 1013.93C1096.11 1013.91 1096.01 1013.84 1095.94 1013.72C1095.88 1013.64 1095.87 1013.54 1095.89 1013.42L1100.57 989.759C1100.59 989.642 1100.64 989.555 1100.73 989.498C1100.84 989.422 1100.96 989.396 1101.07 989.419L1104.15 990.027C1104.26 990.05 1104.35 990.116 1104.4 990.224C1104.48 990.313 1104.51 990.417 1104.49 990.534L1102.6 1000.07L1108.36 1001.21L1110.24 991.672C1110.27 991.555 1110.32 991.468 1110.41 991.411C1110.52 991.335 1110.63 991.309 1110.75 991.332L1113.82 991.94C1113.94 991.963 1114.03 992.029 1114.08 992.137C1114.16 992.226 1114.19 992.33 1114.16 992.447L1109.49 1016.11C1109.46 1016.23 1109.4 1016.31 1109.29 1016.36C1109.2 1016.44 1109.1 1016.47 1108.98 1016.45L1105.91 1015.84C1105.62 1015.79 1105.51 1015.62 1105.57 1015.33L1107.63 1004.92L1101.87 1003.78L1099.81 1014.2C1099.75 1014.48 1099.58 1014.59 1099.3 1014.54L1096.23 1013.93ZM1119.26 1018.48C1118.78 1018.39 1118.51 1018.29 1118.44 1018.17C1118.36 1018.08 1118.37 1017.78 1118.47 1017.26L1122.92 994.73C1123.02 994.259 1123.11 993.995 1123.19 993.938C1123.3 993.863 1123.58 993.869 1124.03 993.958L1135.44 996.213C1135.7 996.264 1135.84 996.341 1135.87 996.445C1135.9 996.525 1135.9 996.671 1135.86 996.882L1135.35 999.425C1135.31 999.661 1135.24 999.818 1135.15 999.899C1135.06 999.955 1134.92 999.963 1134.7 999.921L1126.26 998.252L1125 1004.64L1132.98 1006.22C1133.33 1006.29 1133.47 1006.52 1133.4 1006.89L1132.9 1009.43C1132.82 1009.84 1132.6 1010 1132.25 1009.93L1124.27 1008.35L1122.88 1015.35L1131.75 1017.1C1132.08 1017.16 1132.2 1017.4 1132.12 1017.8L1131.62 1020.34C1131.55 1020.72 1131.35 1020.87 1131.02 1020.81L1119.26 1018.48ZM1173.85 1029.27C1173.6 1029.22 1173.42 1029.18 1173.33 1029.13C1173.24 1029.09 1173.16 1028.98 1173.07 1028.79L1170 1018.5L1167.78 1018.06L1165.95 1027.31C1165.9 1027.57 1165.72 1027.67 1165.41 1027.61L1162.41 1027.01C1162.13 1026.96 1162.01 1026.8 1162.07 1026.54L1166.76 1002.81C1166.78 1002.69 1166.83 1002.6 1166.92 1002.55C1167.03 1002.49 1167.14 1002.48 1167.26 1002.5L1172.52 1003.54C1175.11 1004.06 1176.96 1005.14 1178.08 1006.81C1179.2 1008.45 1179.54 1010.35 1179.11 1012.52C1178.8 1014.09 1178.17 1015.39 1177.21 1016.4C1176.28 1017.39 1175.15 1018.04 1173.81 1018.37L1177.36 1029.53C1177.5 1029.85 1177.34 1029.96 1176.89 1029.88L1173.85 1029.27ZM1169.99 1006.9L1168.51 1014.38L1170.24 1014.72C1171.55 1014.99 1172.64 1014.88 1173.49 1014.41C1174.35 1013.92 1174.9 1013.04 1175.15 1011.77C1175.41 1010.47 1175.25 1009.47 1174.68 1008.74C1174.12 1008.02 1173.28 1007.55 1172.18 1007.33L1169.99 1006.9ZM1185.47 1031.57C1185 1031.48 1184.73 1031.38 1184.65 1031.26C1184.57 1031.17 1184.59 1030.87 1184.69 1030.35L1189.14 1007.82C1189.23 1007.35 1189.32 1007.09 1189.41 1007.03C1189.52 1006.95 1189.8 1006.96 1190.25 1007.05L1201.66 1009.3C1201.91 1009.35 1202.06 1009.43 1202.09 1009.54C1202.12 1009.62 1202.12 1009.76 1202.07 1009.97L1201.57 1012.52C1201.52 1012.75 1201.46 1012.91 1201.37 1012.99C1201.28 1013.05 1201.13 1013.05 1200.92 1013.01L1192.48 1011.34L1191.22 1017.74L1199.2 1019.31C1199.55 1019.38 1199.69 1019.61 1199.62 1019.98L1199.12 1022.53C1199.04 1022.93 1198.82 1023.09 1198.47 1023.02L1190.49 1021.44L1189.1 1028.44L1197.97 1030.19C1198.3 1030.25 1198.42 1030.49 1198.34 1030.89L1197.84 1033.43C1197.77 1033.81 1197.56 1033.96 1197.23 1033.9L1185.47 1031.57ZM1220.26 1042.71C1220.5 1043.1 1220.57 1043.34 1220.45 1043.44C1220.33 1043.54 1220.11 1043.56 1219.78 1043.49L1216.56 1042.86C1216.23 1042.79 1216.03 1042.72 1215.94 1042.66C1215.85 1042.62 1215.75 1042.51 1215.64 1042.34L1212.87 1037.61C1210.38 1037.09 1208.77 1035.52 1208.04 1032.88C1207.32 1030.21 1207.32 1027.06 1208.04 1023.41C1208.19 1022.63 1208.51 1021.46 1208.99 1019.89C1209.5 1018.3 1210.16 1016.88 1210.98 1015.62C1211.81 1014.35 1212.79 1013.36 1213.91 1012.68C1215.04 1012 1216.39 1011.81 1217.94 1012.12C1218.93 1012.31 1219.77 1012.7 1220.47 1013.28C1221.16 1013.83 1221.71 1014.52 1222.12 1015.33C1222.52 1016.12 1222.8 1017.01 1222.95 1017.99C1223.12 1018.98 1223.21 1020.01 1223.22 1021.09C1223.22 1022.17 1223.16 1023.24 1223.02 1024.32C1222.88 1025.39 1222.78 1026.05 1222.73 1026.31C1222.44 1027.77 1221.98 1029.33 1221.33 1030.99C1220.69 1032.65 1219.94 1034.01 1219.1 1035.06C1218.31 1036.06 1217.45 1036.78 1216.5 1037.23L1220.26 1042.71ZM1217.16 1015.89C1216.6 1015.78 1216.04 1015.87 1215.49 1016.15C1214.98 1016.41 1214.48 1016.91 1213.99 1017.65C1213.5 1018.36 1213.04 1019.33 1212.6 1020.57C1212.19 1021.81 1211.87 1022.99 1211.64 1024.12C1211.42 1025.28 1211.26 1026.5 1211.17 1027.81C1211.11 1029.12 1211.16 1030.2 1211.33 1031.07C1211.51 1031.91 1211.78 1032.57 1212.16 1033.03C1212.56 1033.48 1213.04 1033.76 1213.61 1033.87C1214.15 1033.97 1214.68 1033.9 1215.19 1033.63C1215.74 1033.35 1216.25 1032.85 1216.74 1032.14C1217.23 1031.4 1217.68 1030.42 1218.09 1029.18C1218.53 1027.94 1218.87 1026.75 1219.1 1025.59C1219.32 1024.46 1219.46 1023.25 1219.53 1021.94C1219.61 1020.63 1219.57 1019.56 1219.39 1018.72C1219.22 1017.85 1218.93 1017.2 1218.53 1016.75C1218.16 1016.28 1217.7 1016 1217.16 1015.89ZM1240.23 1040.82C1238.62 1041.92 1236.86 1042.28 1234.95 1041.9C1233.05 1041.53 1231.56 1040.52 1230.48 1038.89C1229.86 1037.84 1229.51 1036.61 1229.42 1035.19C1229.36 1033.76 1229.5 1032.17 1229.85 1030.4L1232.7 1015.99C1232.72 1015.87 1232.78 1015.76 1232.88 1015.66C1232.97 1015.55 1233.05 1015.51 1233.12 1015.52L1236.55 1016.2C1236.62 1016.22 1236.67 1016.27 1236.7 1016.38C1236.73 1016.48 1236.73 1016.59 1236.7 1016.71L1233.84 1031.19C1233.38 1033.52 1233.28 1035.2 1233.54 1036.23C1233.83 1037.24 1234.55 1037.86 1235.71 1038.09C1236.86 1038.32 1237.76 1038.02 1238.42 1037.19C1239.07 1036.35 1239.63 1034.76 1240.09 1032.42L1242.96 1017.95C1242.98 1017.83 1243.02 1017.73 1243.09 1017.64C1243.16 1017.56 1243.24 1017.52 1243.33 1017.54L1246.72 1018.21C1246.79 1018.23 1246.85 1018.3 1246.9 1018.43C1246.94 1018.56 1246.96 1018.69 1246.93 1018.8L1244.08 1033.21C1243.74 1034.96 1243.24 1036.47 1242.6 1037.76C1241.97 1039.06 1241.19 1040.08 1240.23 1040.82ZM1251.69 1044.66C1251.22 1044.57 1250.95 1044.47 1250.87 1044.35C1250.79 1044.26 1250.8 1043.96 1250.91 1043.44L1255.36 1020.91C1255.45 1020.44 1255.54 1020.18 1255.63 1020.12C1255.74 1020.04 1256.02 1020.05 1256.47 1020.14L1267.87 1022.39C1268.13 1022.45 1268.28 1022.52 1268.31 1022.63C1268.34 1022.71 1268.33 1022.85 1268.29 1023.06L1267.79 1025.61C1267.74 1025.84 1267.68 1026 1267.59 1026.08C1267.5 1026.14 1267.35 1026.14 1267.14 1026.1L1258.7 1024.43L1257.44 1030.83L1265.42 1032.4C1265.77 1032.47 1265.91 1032.7 1265.84 1033.07L1265.33 1035.62C1265.25 1036.02 1265.04 1036.18 1264.69 1036.11L1256.7 1034.53L1255.32 1041.53L1264.19 1043.28C1264.52 1043.34 1264.64 1043.58 1264.56 1043.98L1264.06 1046.52C1263.98 1046.9 1263.78 1047.05 1263.45 1046.99L1251.69 1044.66ZM1284.65 1049.49C1283.92 1049.96 1283.04 1050.31 1282.01 1050.55C1281.01 1050.79 1280.11 1050.85 1279.3 1050.74C1278.72 1050.68 1278.16 1050.57 1277.6 1050.41C1277.07 1050.28 1276.49 1050.09 1275.88 1049.85C1275.27 1049.6 1274.71 1049.37 1274.22 1049.15C1273.75 1048.94 1273.39 1048.74 1273.16 1048.58C1272.83 1048.36 1272.64 1048.22 1272.58 1048.13C1272.53 1048.05 1272.55 1047.88 1272.65 1047.63L1273.38 1045.24C1273.46 1045.09 1273.53 1044.99 1273.61 1044.96C1273.72 1044.93 1273.9 1045 1274.16 1045.18C1274.38 1045.32 1274.73 1045.52 1275.21 1045.79C1275.72 1046.06 1276.26 1046.3 1276.83 1046.51C1277.42 1046.73 1277.98 1046.9 1278.49 1047.02C1279 1047.15 1279.53 1047.21 1280.07 1047.19C1281.1 1047.2 1281.91 1046.95 1282.49 1046.46C1283.08 1045.96 1283.46 1045.3 1283.62 1044.48C1283.78 1043.68 1283.63 1042.89 1283.17 1042.11C1282.71 1041.32 1282.16 1040.58 1281.51 1039.92C1280.63 1039.03 1279.79 1038.18 1278.97 1037.36C1278.16 1036.51 1277.51 1035.71 1277.02 1034.96C1276.54 1034.17 1276.21 1033.42 1276.04 1032.7C1275.89 1031.99 1275.89 1031.23 1276.05 1030.43C1276.21 1029.58 1276.59 1028.8 1277.17 1028.09C1277.75 1027.37 1278.46 1026.77 1279.29 1026.3C1280.12 1025.81 1280.99 1025.48 1281.9 1025.31C1282.84 1025.16 1283.9 1025.19 1285.07 1025.43C1286.04 1025.62 1286.89 1025.87 1287.64 1026.19C1288.39 1026.49 1289.03 1026.77 1289.56 1027.05C1289.8 1027.22 1289.92 1027.35 1289.92 1027.45C1289.95 1027.53 1289.94 1027.66 1289.88 1027.85L1289.01 1030.02C1288.9 1030.22 1288.77 1030.35 1288.63 1030.42C1288.52 1030.5 1288.33 1030.46 1288.07 1030.31C1287.73 1030.17 1287.38 1030.02 1287.02 1029.85C1286.67 1029.66 1286.3 1029.49 1285.91 1029.34C1285.55 1029.19 1285.2 1029.07 1284.85 1028.98C1284.5 1028.89 1284.16 1028.82 1283.82 1028.78C1282.74 1028.71 1281.86 1028.91 1281.21 1029.4C1280.57 1029.88 1280.17 1030.56 1280 1031.43C1279.88 1032 1280.01 1032.62 1280.36 1033.3C1280.71 1033.98 1281.39 1034.82 1282.4 1035.8C1283.54 1036.93 1284.49 1037.9 1285.24 1038.71C1285.98 1039.51 1286.56 1040.28 1286.99 1041C1287.41 1041.69 1287.66 1042.37 1287.72 1043.02C1287.82 1043.65 1287.8 1044.31 1287.66 1045.02C1287.28 1046.93 1286.28 1048.42 1284.65 1049.49ZM1307.37 1034.05L1303.34 1054.43C1303.28 1054.71 1303.11 1054.83 1302.83 1054.77L1299.69 1054.15C1299.4 1054.09 1299.29 1053.93 1299.35 1053.64L1303.38 1033.27L1297.83 1032.17C1297.71 1032.15 1297.61 1032.09 1297.53 1032C1297.48 1031.89 1297.47 1031.77 1297.5 1031.63L1298.06 1028.8C1298.08 1028.68 1298.13 1028.6 1298.22 1028.54C1298.33 1028.46 1298.45 1028.44 1298.56 1028.46L1313.68 1031.45C1313.8 1031.47 1313.88 1031.54 1313.93 1031.65C1314.01 1031.74 1314.04 1031.84 1314.02 1031.96L1313.46 1034.78C1313.4 1035.09 1313.23 1035.21 1312.95 1035.16L1307.37 1034.05ZM1317.91 1057.75C1317.44 1057.66 1317.17 1057.56 1317.09 1057.44C1317.01 1057.36 1317.02 1057.05 1317.12 1056.53L1321.58 1034C1321.67 1033.53 1321.76 1033.27 1321.85 1033.21C1321.96 1033.13 1322.24 1033.14 1322.69 1033.23L1334.09 1035.48C1334.35 1035.54 1334.5 1035.61 1334.52 1035.72C1334.56 1035.8 1334.55 1035.94 1334.51 1036.15L1334.01 1038.7C1333.96 1038.93 1333.89 1039.09 1333.8 1039.17C1333.72 1039.23 1333.57 1039.23 1333.36 1039.19L1324.92 1037.52L1323.66 1043.92L1331.64 1045.49C1331.99 1045.56 1332.13 1045.79 1332.05 1046.16L1331.55 1048.71C1331.47 1049.11 1331.26 1049.27 1330.9 1049.2L1322.92 1047.62L1321.54 1054.62L1330.4 1056.37C1330.73 1056.44 1330.86 1056.67 1330.78 1057.07L1330.28 1059.61C1330.2 1059.99 1330 1060.14 1329.67 1060.08L1317.91 1057.75ZM1350.54 1061.05C1349.97 1061.47 1349.39 1061.82 1348.79 1062.1C1348.23 1062.38 1347.62 1062.58 1346.99 1062.69C1346.37 1062.84 1345.72 1062.91 1345.04 1062.9C1344.35 1062.91 1343.52 1062.82 1342.53 1062.62L1339.14 1061.95C1338.83 1061.89 1338.65 1061.8 1338.6 1061.7C1338.57 1061.59 1338.59 1061.36 1338.66 1061.01L1343.16 1038.23C1343.25 1037.78 1343.33 1037.53 1343.39 1037.47C1343.48 1037.39 1343.69 1037.38 1344.02 1037.45L1348.64 1038.36C1351.82 1038.99 1353.98 1040.76 1355.12 1043.68C1355.62 1044.95 1355.94 1046.2 1356.06 1047.42C1356.22 1048.63 1356.08 1050.29 1355.66 1052.41C1355.23 1054.6 1354.59 1056.36 1353.74 1057.68C1352.89 1059.01 1351.83 1060.13 1350.54 1061.05ZM1351.77 1045.77C1351.26 1043.74 1350.15 1042.55 1348.43 1042.21L1346.53 1041.83L1343.17 1058.82L1344.33 1059.05C1345.09 1059.2 1345.8 1059.17 1346.48 1058.96C1347.16 1058.73 1347.87 1058.29 1348.61 1057.66C1349.38 1056.98 1350.02 1056.22 1350.52 1055.39C1351.03 1054.54 1351.46 1053.24 1351.81 1051.5C1352.09 1050.09 1352.2 1049 1352.16 1048.23C1352.14 1047.44 1352.01 1046.62 1351.77 1045.77ZM1388.78 1062L1387.01 1070.94C1386.95 1071.24 1386.77 1071.37 1386.46 1071.3L1383.46 1070.71C1383.18 1070.66 1383.06 1070.47 1383.13 1070.17L1387.8 1046.54C1387.82 1046.42 1387.87 1046.34 1387.96 1046.28C1388.07 1046.2 1388.19 1046.18 1388.3 1046.2L1393.5 1047.23C1396.11 1047.74 1398.04 1048.79 1399.3 1050.36C1400.58 1051.93 1400.97 1053.94 1400.49 1056.39C1400.23 1057.69 1399.79 1058.74 1399.17 1059.54C1398.57 1060.33 1397.81 1060.99 1396.87 1061.51C1395.97 1062.02 1394.94 1062.34 1393.78 1062.48C1392.66 1062.6 1391.46 1062.53 1390.19 1062.28L1388.78 1062ZM1391.03 1050.59L1389.5 1058.33L1391.02 1058.63C1392.5 1058.92 1393.73 1058.81 1394.68 1058.29C1395.67 1057.77 1396.29 1056.87 1396.54 1055.57C1396.81 1054.23 1396.63 1053.21 1396.01 1052.5C1395.4 1051.76 1394.5 1051.28 1393.33 1051.05L1391.03 1050.59ZM1416.73 1077.29C1416.59 1077.26 1416.49 1077.2 1416.43 1077.12C1416.37 1077.06 1416.33 1076.88 1416.32 1076.58L1416.08 1070.19L1409.89 1068.97L1407.24 1074.79C1407.13 1075.11 1407.03 1075.27 1406.96 1075.28C1406.88 1075.32 1406.76 1075.32 1406.59 1075.28L1403.8 1074.73C1403.38 1074.65 1403.28 1074.42 1403.5 1074.05L1414.22 1051.73C1414.33 1051.55 1414.4 1051.46 1414.42 1051.44C1414.48 1051.4 1414.63 1051.41 1414.86 1051.45L1418.15 1052.1C1418.36 1052.14 1418.48 1052.19 1418.52 1052.25C1418.56 1052.28 1418.6 1052.4 1418.63 1052.6L1420.06 1077.32C1420.1 1077.75 1419.92 1077.92 1419.52 1077.84L1416.73 1077.29ZM1411.48 1065.42L1415.93 1066.3L1415.63 1056.08L1411.48 1065.42ZM1440.13 1081.07C1439.78 1081.22 1439.39 1081.33 1438.96 1081.39C1438.55 1081.48 1438.09 1081.54 1437.57 1081.56C1437.08 1081.58 1436.6 1081.57 1436.14 1081.53C1435.68 1081.51 1435.26 1081.47 1434.89 1081.39C1433.69 1081.15 1432.59 1080.62 1431.61 1079.79C1430.65 1078.96 1429.86 1077.88 1429.24 1076.53C1428.63 1075.19 1428.24 1073.7 1428.07 1072.08C1427.93 1070.44 1428.04 1068.71 1428.39 1066.9C1428.72 1065.25 1429.24 1063.71 1429.97 1062.29C1430.71 1060.87 1431.62 1059.63 1432.68 1058.57C1433.75 1057.51 1434.89 1056.74 1436.11 1056.28C1437.35 1055.81 1438.62 1055.7 1439.92 1055.93C1440.7 1056.08 1441.48 1056.31 1442.28 1056.62C1443.08 1056.92 1443.79 1057.29 1444.41 1057.73C1444.56 1057.84 1444.64 1057.94 1444.64 1058.04C1444.68 1058.12 1444.67 1058.2 1444.63 1058.29L1443.77 1061.17C1443.71 1061.33 1443.64 1061.43 1443.56 1061.49C1443.49 1061.55 1443.39 1061.52 1443.24 1061.39C1442.6 1060.95 1441.95 1060.59 1441.29 1060.31C1440.64 1060.03 1439.93 1059.82 1439.18 1059.67C1438.55 1059.55 1437.84 1059.66 1437.06 1060.02C1436.3 1060.39 1435.6 1060.97 1434.95 1061.77C1434.33 1062.55 1433.79 1063.45 1433.32 1064.46C1432.85 1065.44 1432.51 1066.51 1432.28 1067.67C1432.03 1068.91 1431.93 1070.1 1431.98 1071.24C1432.02 1072.37 1432.19 1073.42 1432.49 1074.39C1432.8 1075.33 1433.17 1076.07 1433.63 1076.63C1434.11 1077.16 1434.77 1077.52 1435.62 1077.68C1436 1077.76 1436.38 1077.79 1436.78 1077.77C1437.2 1077.75 1437.44 1077.65 1437.5 1077.47L1438.7 1071.39L1434.96 1070.65C1434.86 1070.63 1434.8 1070.59 1434.76 1070.51C1434.74 1070.4 1434.73 1070.29 1434.76 1070.17L1435.31 1067.38C1435.34 1067.24 1435.38 1067.13 1435.45 1067.04C1435.54 1066.96 1435.63 1066.93 1435.72 1066.95L1442.57 1068.31C1442.79 1068.35 1442.92 1068.44 1442.96 1068.57C1443.01 1068.7 1443 1068.94 1442.93 1069.29L1440.84 1079.89C1440.77 1080.24 1440.67 1080.5 1440.53 1080.67C1440.4 1080.84 1440.27 1080.98 1440.13 1081.07ZM1450.35 1083.93C1449.88 1083.84 1449.6 1083.74 1449.53 1083.63C1449.45 1083.54 1449.46 1083.23 1449.56 1082.72L1454.02 1060.18C1454.11 1059.71 1454.2 1059.45 1454.28 1059.39C1454.39 1059.32 1454.68 1059.32 1455.12 1059.41L1466.53 1061.67C1466.79 1061.72 1466.93 1061.79 1466.96 1061.9C1466.99 1061.98 1466.99 1062.12 1466.95 1062.34L1466.44 1064.88C1466.4 1065.11 1466.33 1065.27 1466.24 1065.35C1466.16 1065.41 1466.01 1065.42 1465.8 1065.37L1457.36 1063.71L1456.09 1070.1L1464.07 1071.68C1464.43 1071.75 1464.57 1071.97 1464.49 1072.35L1463.99 1074.89C1463.91 1075.29 1463.69 1075.45 1463.34 1075.38L1455.36 1073.81L1453.98 1080.8L1462.84 1082.55C1463.17 1082.62 1463.3 1082.85 1463.22 1083.25L1462.71 1085.79C1462.64 1086.17 1462.44 1086.32 1462.11 1086.26L1450.35 1083.93ZM1506.13 1094.52C1505.55 1094.6 1504.94 1094.66 1504.29 1094.71C1503.67 1094.76 1502.98 1094.71 1502.23 1094.56C1501 1094.32 1499.86 1093.75 1498.79 1092.85C1497.71 1091.98 1496.87 1090.86 1496.26 1089.49C1495.65 1088.1 1495.28 1086.58 1495.14 1084.94C1495.02 1083.3 1495.13 1081.67 1495.45 1080.04C1495.77 1078.42 1496.29 1076.87 1497.02 1075.4C1497.78 1073.94 1498.68 1072.71 1499.73 1071.72C1500.81 1070.73 1502.01 1070.03 1503.35 1069.6C1504.7 1069.19 1505.99 1069.1 1507.21 1069.34C1507.78 1069.45 1508.37 1069.63 1508.98 1069.87C1509.62 1070.1 1510.24 1070.41 1510.85 1070.8C1511.03 1070.9 1511.12 1071.01 1511.12 1071.11C1511.15 1071.21 1511.13 1071.38 1511.06 1071.61L1510.49 1074.28C1510.43 1074.61 1510.35 1074.78 1510.25 1074.79C1510.15 1074.77 1510 1074.69 1509.78 1074.55C1508.8 1073.79 1507.7 1073.29 1506.48 1073.05C1505.66 1072.89 1504.84 1072.97 1504.05 1073.3C1503.25 1073.61 1502.54 1074.17 1501.92 1074.97C1501.3 1075.76 1500.76 1076.68 1500.31 1077.74C1499.86 1078.77 1499.53 1079.8 1499.33 1080.81C1499.13 1081.82 1499.05 1082.92 1499.08 1084.1C1499.12 1085.26 1499.28 1086.32 1499.56 1087.28C1499.83 1088.24 1500.3 1089.04 1500.95 1089.68C1501.61 1090.33 1502.31 1090.72 1503.07 1090.87C1503.61 1090.98 1504.16 1091.03 1504.73 1091.02C1505.32 1091.01 1505.93 1090.95 1506.56 1090.83C1506.82 1090.76 1506.98 1090.75 1507.04 1090.81C1507.1 1090.87 1507.12 1090.97 1507.09 1091.12L1506.66 1093.86C1506.64 1094.07 1506.6 1094.22 1506.53 1094.31C1506.46 1094.42 1506.33 1094.49 1506.13 1094.52ZM1521.92 1098.71C1519.4 1098.21 1517.78 1096.63 1517.06 1093.97C1516.34 1091.3 1516.34 1088.15 1517.06 1084.5C1517.21 1083.72 1517.53 1082.55 1518.01 1080.98C1518.52 1079.39 1519.18 1077.97 1519.99 1076.71C1520.83 1075.44 1521.81 1074.45 1522.93 1073.77C1524.06 1073.09 1525.41 1072.9 1526.96 1073.21C1527.95 1073.4 1528.79 1073.79 1529.49 1074.37C1530.18 1074.92 1530.73 1075.61 1531.13 1076.42C1531.54 1077.21 1531.82 1078.1 1531.97 1079.08C1532.14 1080.07 1532.23 1081.1 1532.24 1082.18C1532.24 1083.26 1532.18 1084.33 1532.04 1085.41C1531.9 1086.48 1531.8 1087.14 1531.75 1087.4C1531.46 1088.86 1531 1090.42 1530.35 1092.08C1529.7 1093.74 1528.96 1095.1 1528.11 1096.15C1527.29 1097.21 1526.37 1097.96 1525.36 1098.4C1524.34 1098.86 1523.19 1098.96 1521.92 1098.71ZM1526.18 1076.98C1525.61 1076.87 1525.06 1076.96 1524.51 1077.24C1524 1077.5 1523.49 1078 1523.01 1078.74C1522.52 1079.45 1522.06 1080.42 1521.62 1081.66C1521.21 1082.9 1520.89 1084.08 1520.66 1085.21C1520.43 1086.37 1520.28 1087.59 1520.19 1088.9C1520.13 1090.21 1520.18 1091.29 1520.35 1092.16C1520.53 1093 1520.8 1093.66 1521.18 1094.12C1521.58 1094.57 1522.06 1094.85 1522.63 1094.96C1523.17 1095.06 1523.7 1094.99 1524.21 1094.72C1524.76 1094.44 1525.27 1093.94 1525.76 1093.23C1526.25 1092.49 1526.7 1091.51 1527.11 1090.27C1527.55 1089.03 1527.89 1087.84 1528.11 1086.68C1528.34 1085.55 1528.48 1084.34 1528.54 1083.03C1528.63 1081.72 1528.59 1080.65 1528.41 1079.81C1528.24 1078.94 1527.95 1078.29 1527.55 1077.84C1527.18 1077.37 1526.72 1077.09 1526.18 1076.98ZM1549.25 1101.91C1547.64 1103.01 1545.88 1103.37 1543.97 1102.99C1542.07 1102.62 1540.58 1101.61 1539.5 1099.98C1538.88 1098.93 1538.52 1097.7 1538.44 1096.28C1538.38 1094.85 1538.52 1093.26 1538.87 1091.49L1541.72 1077.08C1541.74 1076.96 1541.8 1076.85 1541.9 1076.75C1541.99 1076.64 1542.07 1076.6 1542.14 1076.61L1545.57 1077.29C1545.64 1077.31 1545.69 1077.36 1545.72 1077.47C1545.75 1077.57 1545.75 1077.68 1545.72 1077.8L1542.86 1092.28C1542.4 1094.61 1542.3 1096.29 1542.56 1097.32C1542.85 1098.33 1543.57 1098.95 1544.73 1099.18C1545.88 1099.41 1546.78 1099.11 1547.44 1098.28C1548.09 1097.44 1548.65 1095.85 1549.11 1093.51L1551.98 1079.04C1552 1078.92 1552.04 1078.82 1552.11 1078.73C1552.17 1078.65 1552.25 1078.61 1552.35 1078.63L1555.74 1079.3C1555.81 1079.32 1555.87 1079.39 1555.92 1079.52C1555.96 1079.65 1555.98 1079.78 1555.95 1079.89L1553.1 1094.3C1552.76 1096.05 1552.26 1097.56 1551.62 1098.85C1550.99 1100.15 1550.21 1101.17 1549.25 1101.91ZM1560.46 1105.7C1560.35 1105.68 1560.25 1105.61 1560.17 1105.5C1560.12 1105.41 1560.1 1105.31 1560.12 1105.2L1564.8 1081.53C1564.83 1081.42 1564.88 1081.33 1564.96 1081.27C1565.08 1081.2 1565.19 1081.17 1565.31 1081.19L1568.45 1081.82C1568.57 1081.84 1568.66 1081.9 1568.71 1082.01C1568.79 1082.1 1568.82 1082.21 1568.79 1082.32L1564.76 1102.7L1573.24 1104.38C1573.52 1104.43 1573.63 1104.61 1573.57 1104.92L1573.02 1107.74C1572.99 1107.86 1572.93 1107.95 1572.82 1108C1572.73 1108.08 1572.63 1108.11 1572.51 1108.08L1560.46 1105.7ZM1593.34 1109.05C1592.77 1109.47 1592.19 1109.82 1591.6 1110.1C1591.03 1110.38 1590.42 1110.57 1589.79 1110.69C1589.17 1110.84 1588.52 1110.91 1587.84 1110.9C1587.15 1110.91 1586.32 1110.81 1585.33 1110.62L1581.94 1109.95C1581.63 1109.89 1581.45 1109.8 1581.4 1109.7C1581.37 1109.59 1581.39 1109.36 1581.46 1109.01L1585.97 1086.23C1586.05 1085.78 1586.13 1085.53 1586.19 1085.47C1586.28 1085.39 1586.49 1085.38 1586.82 1085.45L1591.44 1086.36C1594.62 1086.99 1596.78 1088.76 1597.92 1091.68C1598.42 1092.95 1598.74 1094.2 1598.86 1095.42C1599.02 1096.63 1598.88 1098.29 1598.46 1100.41C1598.03 1102.6 1597.39 1104.36 1596.54 1105.68C1595.69 1107 1594.63 1108.13 1593.34 1109.05ZM1594.57 1093.77C1594.06 1091.73 1592.95 1090.55 1591.23 1090.21L1589.33 1089.83L1585.97 1106.82L1587.13 1107.05C1587.89 1107.2 1588.6 1107.17 1589.28 1106.96C1589.96 1106.73 1590.67 1106.29 1591.41 1105.66C1592.18 1104.98 1592.82 1104.22 1593.32 1103.39C1593.84 1102.54 1594.26 1101.24 1594.61 1099.5C1594.89 1098.09 1595 1097 1594.96 1096.23C1594.94 1095.44 1594.81 1094.62 1594.57 1093.77ZM1635.48 1120.53C1635.29 1120.5 1635.15 1120.43 1635.07 1120.34C1634.99 1120.25 1634.91 1120.08 1634.81 1119.81L1632.9 1103.88L1632.74 1100.98L1632.23 1103.56L1629.23 1118.71C1629.19 1118.95 1629.12 1119.09 1629.03 1119.15C1628.95 1119.21 1628.79 1119.21 1628.55 1119.16L1626.15 1118.69C1625.96 1118.65 1625.83 1118.59 1625.75 1118.5C1625.67 1118.41 1627.19 1110.49 1630.3 1094.74C1630.36 1094.46 1630.44 1094.29 1630.55 1094.24C1630.66 1094.16 1630.85 1094.15 1631.1 1094.2L1634.18 1094.81C1634.37 1094.85 1634.5 1094.91 1634.58 1095C1634.66 1095.06 1634.75 1095.24 1634.84 1095.53L1636.76 1111.46L1636.92 1114.36L1637.43 1111.78L1640.42 1096.63C1640.47 1096.39 1640.53 1096.25 1640.62 1096.19C1640.7 1096.14 1640.86 1096.13 1641.1 1096.18L1643.5 1096.65C1643.74 1096.7 1643.87 1096.76 1643.9 1096.84C1643.96 1096.93 1643.97 1097.09 1643.92 1097.32L1639.32 1120.59C1639.26 1120.88 1639.18 1121.04 1639.07 1121.1C1638.98 1121.18 1638.81 1121.19 1638.55 1121.14L1635.48 1120.53ZM1654.36 1124.89C1651.84 1124.39 1650.22 1122.81 1649.5 1120.15C1648.78 1117.49 1648.78 1114.33 1649.5 1110.68C1649.65 1109.9 1649.97 1108.73 1650.45 1107.16C1650.96 1105.58 1651.62 1104.15 1652.43 1102.89C1653.27 1101.62 1654.25 1100.64 1655.36 1099.95C1656.5 1099.27 1657.85 1099.08 1659.4 1099.39C1660.39 1099.59 1661.23 1099.97 1661.92 1100.55C1662.62 1101.1 1663.17 1101.79 1663.57 1102.6C1663.98 1103.39 1664.26 1104.28 1664.4 1105.26C1664.58 1106.25 1664.66 1107.28 1664.67 1108.36C1664.68 1109.44 1664.61 1110.51 1664.47 1111.59C1664.34 1112.66 1664.24 1113.33 1664.19 1113.59C1663.9 1115.05 1663.43 1116.6 1662.79 1118.26C1662.14 1119.92 1661.4 1121.28 1660.55 1122.33C1659.73 1123.39 1658.81 1124.14 1657.8 1124.58C1656.78 1125.04 1655.63 1125.14 1654.36 1124.89ZM1658.62 1103.16C1658.05 1103.05 1657.5 1103.14 1656.95 1103.42C1656.43 1103.69 1655.93 1104.19 1655.44 1104.92C1654.96 1105.63 1654.5 1106.61 1654.06 1107.84C1653.64 1109.08 1653.32 1110.26 1653.1 1111.39C1652.87 1112.55 1652.71 1113.78 1652.63 1115.08C1652.57 1116.39 1652.62 1117.48 1652.79 1118.34C1652.97 1119.18 1653.24 1119.84 1653.61 1120.3C1654.02 1120.75 1654.5 1121.03 1655.06 1121.14C1655.6 1121.25 1656.13 1121.17 1656.65 1120.9C1657.2 1120.62 1657.71 1120.12 1658.19 1119.41C1658.68 1118.67 1659.13 1117.69 1659.55 1116.45C1659.99 1115.21 1660.32 1114.02 1660.55 1112.87C1660.78 1111.74 1660.92 1110.52 1660.98 1109.21C1661.07 1107.9 1661.02 1106.83 1660.85 1105.99C1660.68 1105.12 1660.39 1104.47 1659.99 1104.02C1659.62 1103.56 1659.16 1103.27 1658.62 1103.16ZM1682.6 1108.24L1678.58 1128.61C1678.52 1128.9 1678.35 1129.01 1678.07 1128.95L1674.93 1128.33C1674.64 1128.28 1674.53 1128.11 1674.59 1127.82L1678.61 1107.45L1673.07 1106.35C1672.95 1106.33 1672.85 1106.27 1672.77 1106.18C1672.72 1106.07 1672.71 1105.95 1672.74 1105.81L1673.29 1102.98C1673.32 1102.86 1673.37 1102.78 1673.46 1102.72C1673.57 1102.64 1673.68 1102.62 1673.8 1102.64L1688.92 1105.63C1689.04 1105.65 1689.12 1105.72 1689.17 1105.83C1689.25 1105.92 1689.28 1106.02 1689.26 1106.14L1688.7 1108.96C1688.64 1109.27 1688.47 1109.39 1688.18 1109.34L1682.6 1108.24ZM1714.69 1136.19C1714.41 1136.14 1714.29 1135.99 1714.34 1135.76L1719.02 1112.09C1719.08 1111.76 1719.25 1111.63 1719.54 1111.68L1724.83 1112.73C1727 1113.16 1728.64 1114.07 1729.76 1115.47C1730.91 1116.84 1731.29 1118.48 1730.92 1120.39C1730.7 1121.47 1730.24 1122.46 1729.52 1123.35C1728.81 1124.23 1727.92 1124.86 1726.84 1125.24C1727.4 1125.62 1727.86 1126.06 1728.23 1126.57C1728.61 1127.09 1728.91 1127.65 1729.11 1128.25C1729.3 1128.86 1729.42 1129.44 1729.46 1130.01C1729.51 1130.58 1729.51 1131.05 1729.44 1131.4C1728.99 1133.69 1727.84 1135.34 1726 1136.37C1724.16 1137.38 1722 1137.64 1719.53 1137.15L1714.69 1136.19ZM1722.23 1116.07L1720.99 1122.35L1722.75 1122.7C1723.91 1122.93 1724.83 1122.82 1725.53 1122.37C1726.26 1121.91 1726.73 1121.15 1726.93 1120.12C1727.09 1119.34 1726.94 1118.59 1726.5 1117.87C1726.08 1117.15 1725.31 1116.68 1724.21 1116.46L1722.23 1116.07ZM1720.27 1125.99L1718.85 1133.16L1720.51 1133.49C1721.73 1133.73 1722.8 1133.65 1723.72 1133.24C1724.63 1132.84 1725.2 1132.02 1725.45 1130.8C1725.69 1129.57 1725.47 1128.59 1724.78 1127.84C1724.1 1127.07 1723.15 1126.56 1721.93 1126.32L1720.27 1125.99ZM1737.29 1140.66C1736.82 1140.57 1736.55 1140.47 1736.47 1140.35C1736.39 1140.26 1736.41 1139.96 1736.51 1139.44L1740.96 1116.91C1741.06 1116.44 1741.14 1116.17 1741.23 1116.12C1741.34 1116.04 1741.62 1116.05 1742.07 1116.14L1753.48 1118.39C1753.74 1118.44 1753.88 1118.52 1753.91 1118.62C1753.94 1118.7 1753.94 1118.85 1753.89 1119.06L1753.39 1121.61C1753.35 1121.84 1753.28 1122 1753.19 1122.08C1753.1 1122.14 1752.96 1122.14 1752.74 1122.1L1744.3 1120.43L1743.04 1126.82L1751.02 1128.4C1751.37 1128.47 1751.51 1128.7 1751.44 1129.07L1750.94 1131.61C1750.86 1132.02 1750.64 1132.18 1750.29 1132.11L1742.31 1130.53L1740.92 1137.53L1749.79 1139.28C1750.12 1139.34 1750.24 1139.58 1750.16 1139.98L1749.66 1142.52C1749.59 1142.9 1749.38 1143.05 1749.05 1142.99L1737.29 1140.66ZM1788.62 1129.19L1787.38 1135.48L1795.43 1137.07C1795.74 1137.13 1795.87 1137.3 1795.81 1137.59L1795.24 1140.45C1795.19 1140.73 1795.01 1140.84 1794.7 1140.78L1786.65 1139.19L1784.62 1149.47C1784.55 1149.82 1784.35 1149.96 1784.02 1149.9L1781.12 1149.33C1780.77 1149.26 1780.63 1149.04 1780.7 1148.69L1785.31 1125.35C1785.36 1125.09 1785.44 1124.93 1785.55 1124.88C1785.66 1124.8 1785.81 1124.79 1786 1124.82L1797.9 1127.18C1798.02 1127.2 1798.11 1127.26 1798.16 1127.37C1798.24 1127.46 1798.27 1127.57 1798.24 1127.68L1797.69 1130.47C1797.63 1130.8 1797.45 1130.94 1797.17 1130.88L1788.62 1129.19ZM1808.87 1155.43C1806.35 1154.94 1804.73 1153.36 1804.01 1150.69C1803.29 1148.03 1803.29 1144.88 1804.01 1141.23C1804.16 1140.45 1804.48 1139.28 1804.96 1137.71C1805.47 1136.12 1806.13 1134.7 1806.94 1133.44C1807.78 1132.16 1808.76 1131.18 1809.87 1130.5C1811.01 1129.82 1812.36 1129.63 1813.91 1129.94C1814.9 1130.13 1815.74 1130.52 1816.43 1131.1C1817.13 1131.65 1817.68 1132.33 1818.08 1133.15C1818.49 1133.94 1818.77 1134.82 1818.91 1135.81C1819.09 1136.79 1819.17 1137.83 1819.18 1138.9C1819.19 1139.98 1819.12 1141.06 1818.98 1142.13C1818.85 1143.21 1818.75 1143.87 1818.7 1144.13C1818.41 1145.59 1817.94 1147.15 1817.3 1148.81C1816.65 1150.47 1815.91 1151.82 1815.06 1152.88C1814.24 1153.94 1813.32 1154.69 1812.31 1155.12C1811.29 1155.58 1810.14 1155.69 1808.87 1155.43ZM1813.13 1133.71C1812.56 1133.6 1812.01 1133.68 1811.46 1133.97C1810.94 1134.23 1810.44 1134.73 1809.95 1135.47C1809.47 1136.18 1809.01 1137.15 1808.57 1138.38C1808.15 1139.62 1807.83 1140.81 1807.61 1141.94C1807.38 1143.09 1807.22 1144.32 1807.14 1145.62C1807.07 1146.93 1807.13 1148.02 1807.3 1148.89C1807.48 1149.73 1807.75 1150.38 1808.12 1150.85C1808.52 1151.29 1809.01 1151.57 1809.57 1151.68C1810.11 1151.79 1810.64 1151.71 1811.16 1151.45C1811.71 1151.16 1812.22 1150.67 1812.7 1149.95C1813.19 1149.22 1813.64 1148.23 1814.06 1146.99C1814.5 1145.76 1814.83 1144.56 1815.06 1143.41C1815.28 1142.28 1815.43 1141.06 1815.49 1139.75C1815.58 1138.45 1815.53 1137.38 1815.36 1136.53C1815.19 1135.67 1814.9 1135.01 1814.5 1134.57C1814.13 1134.1 1813.67 1133.81 1813.13 1133.71ZM1836.2 1158.64C1834.59 1159.74 1832.83 1160.1 1830.92 1159.72C1829.01 1159.34 1827.52 1158.34 1826.45 1156.71C1825.83 1155.66 1825.47 1154.42 1825.38 1153.01C1825.32 1151.58 1825.47 1149.98 1825.82 1148.22L1828.67 1133.81C1828.69 1133.69 1828.75 1133.58 1828.84 1133.48C1828.94 1133.37 1829.02 1133.33 1829.09 1133.34L1832.51 1134.02C1832.59 1134.03 1832.63 1134.09 1832.66 1134.19C1832.69 1134.3 1832.69 1134.41 1832.67 1134.53L1829.81 1149.01C1829.35 1151.34 1829.25 1153.02 1829.51 1154.05C1829.8 1155.06 1830.52 1155.68 1831.67 1155.91C1832.83 1156.13 1833.73 1155.84 1834.38 1155.01C1835.04 1154.16 1835.6 1152.57 1836.06 1150.24L1838.92 1135.76C1838.95 1135.64 1838.99 1135.54 1839.06 1135.46C1839.12 1135.37 1839.2 1135.34 1839.3 1135.36L1842.69 1136.03C1842.76 1136.04 1842.82 1136.12 1842.86 1136.25C1842.91 1136.38 1842.92 1136.5 1842.9 1136.62L1840.05 1151.03C1839.71 1152.77 1839.21 1154.29 1838.56 1155.58C1837.94 1156.88 1837.15 1157.89 1836.2 1158.64ZM1856.2 1164.17C1856.02 1164.13 1855.88 1164.07 1855.8 1163.98C1855.72 1163.89 1855.63 1163.71 1855.54 1163.45L1853.63 1147.51L1853.46 1144.62L1852.95 1147.2L1849.96 1162.35C1849.91 1162.58 1849.85 1162.73 1849.76 1162.78C1849.68 1162.84 1849.52 1162.85 1849.28 1162.8L1846.88 1162.33C1846.69 1162.29 1846.56 1162.22 1846.48 1162.14C1846.4 1162.05 1847.92 1154.13 1851.03 1138.38C1851.08 1138.09 1851.17 1137.93 1851.28 1137.87C1851.39 1137.8 1851.57 1137.79 1851.83 1137.84L1854.91 1138.44C1855.09 1138.48 1855.23 1138.54 1855.31 1138.63C1855.39 1138.7 1855.48 1138.88 1855.57 1139.16L1857.48 1155.1L1857.65 1157.99L1858.16 1155.42L1861.15 1140.27C1861.2 1140.03 1861.26 1139.88 1861.35 1139.83C1861.43 1139.77 1861.59 1139.77 1861.83 1139.81L1864.23 1140.29C1864.46 1140.33 1864.6 1140.4 1864.63 1140.48C1864.69 1140.56 1864.69 1140.72 1864.65 1140.96L1860.05 1164.23C1859.99 1164.51 1859.91 1164.68 1859.8 1164.73C1859.71 1164.81 1859.54 1164.83 1859.28 1164.78L1856.2 1164.17ZM1880.29 1165.77C1879.72 1166.2 1879.13 1166.55 1878.54 1166.82C1877.97 1167.1 1877.37 1167.3 1876.74 1167.42C1876.12 1167.57 1875.47 1167.63 1874.79 1167.62C1874.1 1167.63 1873.26 1167.54 1872.27 1167.35L1868.88 1166.67C1868.58 1166.61 1868.4 1166.53 1868.35 1166.42C1868.32 1166.32 1868.34 1166.09 1868.41 1165.74L1872.91 1142.96C1873 1142.51 1873.07 1142.26 1873.14 1142.19C1873.23 1142.11 1873.43 1142.11 1873.76 1142.17L1878.39 1143.09C1881.57 1143.72 1883.73 1145.49 1884.86 1148.4C1885.37 1149.68 1885.68 1150.93 1885.81 1152.15C1885.96 1153.35 1885.83 1155.02 1885.41 1157.14C1884.98 1159.32 1884.34 1161.08 1883.49 1162.41C1882.64 1163.73 1881.57 1164.85 1880.29 1165.77ZM1881.51 1150.49C1881.01 1148.46 1879.9 1147.27 1878.18 1146.94L1876.27 1146.56L1872.92 1163.55L1874.08 1163.78C1874.83 1163.92 1875.55 1163.89 1876.23 1163.69C1876.91 1163.45 1877.62 1163.02 1878.36 1162.38C1879.13 1161.7 1879.76 1160.95 1880.27 1160.12C1880.78 1159.27 1881.21 1157.97 1881.55 1156.23C1881.83 1154.81 1881.95 1153.72 1881.91 1152.96C1881.89 1152.17 1881.76 1151.35 1881.51 1150.49Z" fill="#A180E5"/>
</svg>
