<svg width="878" height="92" viewBox="0 0 878 92" fill="none" xmlns="http://www.w3.org/2000/svg">
<rect width="878" height="92" rx="46" fill="#1C1D39"/>
<path d="M226.552 57.8C226.432 57.8 226.324 57.752 226.228 57.656C226.156 57.584 226.12 57.476 226.12 57.332V54.524C226.12 54.404 226.156 54.308 226.228 54.236C226.324 54.14 226.432 54.092 226.552 54.092H228.82V44.156V42.896H225.868C225.748 42.896 225.64 42.86 225.544 42.788C225.472 42.692 225.436 42.572 225.436 42.428V39.728C225.436 39.608 225.472 39.512 225.544 39.44C225.64 39.344 225.748 39.296 225.868 39.296H231.772C231.868 39.296 231.94 39.332 231.988 39.404C232.06 39.452 232.096 39.524 232.096 39.62V42.68C232.336 42.176 232.588 41.744 232.852 41.384C233.14 41 233.44 40.664 233.752 40.376C234.088 40.064 234.46 39.788 234.868 39.548C235.3 39.284 235.924 39.056 236.74 38.864C237.772 38.696 238.768 38.72 239.728 38.936C240.712 39.152 241.528 39.524 242.176 40.052C242.296 40.172 242.344 40.28 242.32 40.376C242.296 40.472 242.272 40.568 242.248 40.664L241.06 43.112C241.012 43.256 240.928 43.352 240.808 43.4C240.712 43.448 240.58 43.424 240.412 43.328C239.86 43.016 239.248 42.8 238.576 42.68C237.904 42.56 237.244 42.56 236.596 42.68C235.468 42.896 234.58 43.436 233.932 44.3C233.284 45.164 232.888 46.04 232.744 46.928C232.6 47.816 232.528 48.86 232.528 50.06V54.092H236.272C236.392 54.092 236.488 54.14 236.56 54.236C236.656 54.308 236.704 54.404 236.704 54.524V57.332C236.704 57.644 236.56 57.8 236.272 57.8H226.552ZM263.164 49.628C263.164 49.82 263.116 49.964 263.02 50.06C262.948 50.132 262.84 50.168 262.696 50.168H252.832C252.856 51.44 253.18 52.532 253.804 53.444C254.452 54.332 255.484 54.776 256.9 54.776C257.764 54.776 258.52 54.68 259.168 54.488C259.84 54.272 260.524 53.912 261.22 53.408C261.412 53.312 261.52 53.324 261.544 53.444C261.592 53.564 261.616 53.708 261.616 53.876V56.432C261.616 56.648 261.58 56.804 261.508 56.9C261.436 57.02 261.316 57.14 261.148 57.26C260.524 57.596 259.888 57.86 259.24 58.052C258.616 58.244 257.836 58.34 256.9 58.34C254.164 58.34 252.124 57.464 250.78 55.712C249.436 53.96 248.764 51.644 248.764 48.764C248.764 47.54 248.908 46.352 249.196 45.2C249.484 44.024 249.928 42.968 250.528 42.032C251.152 41.096 251.932 40.328 252.868 39.728C253.804 39.128 254.884 38.828 256.108 38.828C257.404 38.828 258.496 39.104 259.384 39.656C260.296 40.208 261.028 40.94 261.58 41.852C262.156 42.74 262.564 43.76 262.804 44.912C263.068 46.064 263.2 47.312 263.2 48.656C263.2 48.824 263.188 49.016 263.164 49.232C263.164 49.424 263.164 49.556 263.164 49.628ZM256.036 42.284C255.46 42.284 254.944 42.452 254.488 42.788C254.056 43.1 253.708 43.532 253.444 44.084C253.204 44.612 253.036 45.104 252.94 45.56C252.868 45.992 252.832 46.34 252.832 46.604H259.276C259.276 46.34 259.228 45.992 259.132 45.56C259.06 45.104 258.892 44.612 258.628 44.084C258.388 43.532 258.04 43.1 257.584 42.788C257.128 42.452 256.612 42.284 256.036 42.284ZM285.556 57.404C284.668 57.716 283.768 57.944 282.856 58.088C281.968 58.232 281.212 58.292 280.588 58.268C279.34 58.268 278.344 58.052 277.6 57.62C276.856 57.212 276.34 56.732 276.052 56.18C275.716 55.556 275.512 54.824 275.44 53.984C275.368 53.144 275.332 52.004 275.332 50.564V43.76H271.372C271.252 43.76 271.144 43.724 271.048 43.652C270.976 43.556 270.94 43.448 270.94 43.328V40.484C270.94 40.364 270.976 40.268 271.048 40.196C271.144 40.1 271.252 40.052 271.372 40.052H275.332V34.832C275.332 34.712 275.38 34.616 275.476 34.544C275.572 34.448 275.68 34.4 275.8 34.4H278.716C278.86 34.4 278.968 34.448 279.04 34.544C279.136 34.616 279.184 34.712 279.184 34.832V40.052H285.232C285.352 40.052 285.448 40.1 285.52 40.196C285.616 40.268 285.664 40.364 285.664 40.484V43.328C285.664 43.448 285.616 43.556 285.52 43.652C285.448 43.724 285.352 43.76 285.232 43.76H279.184V50.78C279.184 52.34 279.22 53.336 279.292 53.768C279.34 54.224 279.556 54.5 279.94 54.596C280.348 54.692 280.888 54.74 281.56 54.74C282.112 54.74 282.688 54.68 283.288 54.56C283.888 54.44 284.476 54.284 285.052 54.092C285.172 54.044 285.256 54.044 285.304 54.092C285.352 54.116 285.4 54.224 285.448 54.416L285.736 56.972C285.76 57.14 285.7 57.284 285.556 57.404ZM304.744 57.8C304.648 57.8 304.552 57.764 304.456 57.692C304.384 57.644 304.348 57.56 304.348 57.44V55.964C303.892 56.756 303.304 57.356 302.584 57.764C301.888 58.172 301.072 58.376 300.136 58.376C298.336 58.376 296.848 57.692 295.672 56.324C294.52 54.956 293.944 53 293.944 50.456V39.8C293.944 39.68 293.98 39.572 294.052 39.476C294.148 39.356 294.244 39.296 294.34 39.296H297.4C297.496 39.296 297.58 39.356 297.652 39.476C297.748 39.596 297.796 39.716 297.796 39.836V49.88C297.796 51.68 298.048 52.952 298.552 53.696C299.056 54.44 299.728 54.812 300.568 54.812C301.6 54.812 302.452 54.32 303.124 53.336C303.796 52.352 304.132 50.888 304.132 48.944V39.8C304.132 39.68 304.168 39.572 304.24 39.476C304.336 39.356 304.456 39.296 304.6 39.296H307.588C307.684 39.296 307.768 39.368 307.84 39.512C307.936 39.632 307.984 39.752 307.984 39.872V53.156C307.984 53.9 307.996 54.632 308.02 55.352C308.044 56.072 308.056 56.732 308.056 57.332C308.056 57.644 307.924 57.8 307.66 57.8H304.744ZM316.552 57.8C316.432 57.8 316.324 57.752 316.228 57.656C316.156 57.584 316.12 57.476 316.12 57.332V54.524C316.12 54.404 316.156 54.308 316.228 54.236C316.324 54.14 316.432 54.092 316.552 54.092H318.82V44.156V42.896H315.868C315.748 42.896 315.64 42.86 315.544 42.788C315.472 42.692 315.436 42.572 315.436 42.428V39.728C315.436 39.608 315.472 39.512 315.544 39.44C315.64 39.344 315.748 39.296 315.868 39.296H321.772C321.868 39.296 321.94 39.332 321.988 39.404C322.06 39.452 322.096 39.524 322.096 39.62V42.68C322.336 42.176 322.588 41.744 322.852 41.384C323.14 41 323.44 40.664 323.752 40.376C324.088 40.064 324.46 39.788 324.868 39.548C325.3 39.284 325.924 39.056 326.74 38.864C327.772 38.696 328.768 38.72 329.728 38.936C330.712 39.152 331.528 39.524 332.176 40.052C332.296 40.172 332.344 40.28 332.32 40.376C332.296 40.472 332.272 40.568 332.248 40.664L331.06 43.112C331.012 43.256 330.928 43.352 330.808 43.4C330.712 43.448 330.58 43.424 330.412 43.328C329.86 43.016 329.248 42.8 328.576 42.68C327.904 42.56 327.244 42.56 326.596 42.68C325.468 42.896 324.58 43.436 323.932 44.3C323.284 45.164 322.888 46.04 322.744 46.928C322.6 47.816 322.528 48.86 322.528 50.06V54.092H326.272C326.392 54.092 326.488 54.14 326.56 54.236C326.656 54.308 326.704 54.404 326.704 54.524V57.332C326.704 57.644 326.56 57.8 326.272 57.8H316.552ZM349.636 57.8C349.516 57.8 349.408 57.74 349.312 57.62C349.24 57.524 349.204 57.416 349.204 57.296V47.252C349.204 45.524 348.976 44.276 348.52 43.508C348.088 42.74 347.428 42.356 346.54 42.356C345.508 42.356 344.644 42.8 343.948 43.688C343.276 44.552 342.94 45.812 342.94 47.468V57.332C342.94 57.644 342.796 57.8 342.508 57.8H339.556C339.436 57.8 339.328 57.74 339.232 57.62C339.16 57.524 339.124 57.416 339.124 57.296V44.372C339.124 43.46 339.112 42.584 339.088 41.744C339.088 40.904 339.064 40.244 339.016 39.764C338.968 39.452 339.136 39.296 339.52 39.296H342.328C342.592 39.296 342.7 39.392 342.652 39.584L342.616 40.88C343.024 40.304 343.588 39.812 344.308 39.404C345.052 38.996 345.832 38.792 346.648 38.792C348.376 38.792 349.864 39.44 351.112 40.736C352.384 42.008 353.02 44 353.02 46.712V57.332C353.02 57.644 352.876 57.8 352.588 57.8H349.636ZM398.056 57.404C397.168 57.716 396.268 57.944 395.356 58.088C394.468 58.232 393.712 58.292 393.088 58.268C391.84 58.268 390.844 58.052 390.1 57.62C389.356 57.212 388.84 56.732 388.552 56.18C388.216 55.556 388.012 54.824 387.94 53.984C387.868 53.144 387.832 52.004 387.832 50.564V43.76H383.872C383.752 43.76 383.644 43.724 383.548 43.652C383.476 43.556 383.44 43.448 383.44 43.328V40.484C383.44 40.364 383.476 40.268 383.548 40.196C383.644 40.1 383.752 40.052 383.872 40.052H387.832V34.832C387.832 34.712 387.88 34.616 387.976 34.544C388.072 34.448 388.18 34.4 388.3 34.4H391.216C391.36 34.4 391.468 34.448 391.54 34.544C391.636 34.616 391.684 34.712 391.684 34.832V40.052H397.732C397.852 40.052 397.948 40.1 398.02 40.196C398.116 40.268 398.164 40.364 398.164 40.484V43.328C398.164 43.448 398.116 43.556 398.02 43.652C397.948 43.724 397.852 43.76 397.732 43.76H391.684V50.78C391.684 52.34 391.72 53.336 391.792 53.768C391.84 54.224 392.056 54.5 392.44 54.596C392.848 54.692 393.388 54.74 394.06 54.74C394.612 54.74 395.188 54.68 395.788 54.56C396.388 54.44 396.976 54.284 397.552 54.092C397.672 54.044 397.756 54.044 397.804 54.092C397.852 54.116 397.9 54.224 397.948 54.416L398.236 56.972C398.26 57.14 398.2 57.284 398.056 57.404ZM419.152 55.28C418.456 56.288 417.628 57.044 416.668 57.548C415.732 58.076 414.676 58.34 413.5 58.34C412.3 58.34 411.232 58.088 410.296 57.584C409.384 57.08 408.604 56.384 407.956 55.496C407.332 54.584 406.864 53.54 406.552 52.364C406.24 51.188 406.084 49.928 406.084 48.584C406.084 47.24 406.24 45.98 406.552 44.804C406.864 43.628 407.332 42.596 407.956 41.708C408.604 40.82 409.384 40.124 410.296 39.62C411.208 39.116 412.276 38.864 413.5 38.864C414.7 38.864 415.756 39.116 416.668 39.62C417.604 40.124 418.384 40.82 419.008 41.708C419.656 42.596 420.136 43.628 420.448 44.804C420.76 45.98 420.916 47.24 420.916 48.584C420.916 49.904 420.76 51.14 420.448 52.292C420.136 53.444 419.704 54.44 419.152 55.28ZM413.5 42.392C412.876 42.392 412.348 42.572 411.916 42.932C411.484 43.292 411.124 43.772 410.836 44.372C410.572 44.948 410.356 45.608 410.188 46.352C410.044 47.096 409.972 47.84 409.972 48.584C409.972 49.352 410.044 50.108 410.188 50.852C410.356 51.572 410.572 52.232 410.836 52.832C411.124 53.432 411.484 53.912 411.916 54.272C412.348 54.632 412.876 54.812 413.5 54.812C414.1 54.812 414.616 54.632 415.048 54.272C415.504 53.912 415.864 53.432 416.128 52.832C416.416 52.232 416.632 51.572 416.776 50.852C416.944 50.108 417.028 49.352 417.028 48.584C417.028 47.84 416.944 47.108 416.776 46.388C416.632 45.644 416.416 44.984 416.128 44.408C415.864 43.808 415.504 43.328 415.048 42.968C414.616 42.584 414.1 42.392 413.5 42.392ZM461.668 57.8C461.38 57.8 461.236 57.656 461.236 57.368V47.792C461.236 45.992 461.032 44.684 460.624 43.868C460.216 43.028 459.556 42.608 458.644 42.608C456.46 42.608 455.248 43.88 455.008 46.424V57.368C455.008 57.656 454.876 57.8 454.612 57.8H451.588C451.492 57.8 451.396 57.752 451.3 57.656C451.228 57.584 451.192 57.488 451.192 57.368V31.16C451.192 31.04 451.228 30.944 451.3 30.872C451.396 30.776 451.492 30.728 451.588 30.728H454.396C454.492 30.728 454.576 30.776 454.648 30.872C454.72 30.944 454.756 31.04 454.756 31.16V40.88C455.284 40.232 455.896 39.752 456.592 39.44C457.312 39.104 458.044 38.936 458.788 38.936C462.988 38.936 465.088 41.876 465.088 47.756V57.368C465.088 57.488 465.04 57.584 464.944 57.656C464.872 57.752 464.788 57.8 464.692 57.8H461.668ZM484.852 57.8C484.684 57.8 484.576 57.788 484.528 57.764C484.504 57.74 484.492 57.656 484.492 57.512V55.856C483.916 56.696 483.196 57.32 482.332 57.728C481.468 58.16 480.592 58.376 479.704 58.376C479.008 58.376 478.264 58.244 477.472 57.98C476.704 57.74 476.044 57.368 475.492 56.864C474.94 56.384 474.496 55.784 474.16 55.064C473.848 54.344 473.692 53.504 473.692 52.544C473.692 51.512 473.896 50.576 474.304 49.736C474.736 48.872 475.384 48.152 476.248 47.576C477.112 47 478.156 46.58 479.38 46.316C480.628 46.028 482.212 45.884 484.132 45.884C484.132 45.452 484.084 45.056 483.988 44.696C483.916 44.312 483.772 43.952 483.556 43.616C483.34 43.28 483.028 43.004 482.62 42.788C482.236 42.548 481.756 42.428 481.18 42.428C480.412 42.428 479.608 42.572 478.768 42.86C477.952 43.148 477.184 43.532 476.464 44.012C476.104 44.252 475.852 44.36 475.708 44.336C475.588 44.312 475.528 44.18 475.528 43.94V41.132C475.528 41.084 475.516 41 475.492 40.88C475.492 40.736 475.54 40.628 475.636 40.556C475.756 40.436 475.912 40.328 476.104 40.232C476.824 39.824 477.616 39.488 478.48 39.224C479.344 38.96 480.22 38.828 481.108 38.828C483.412 38.828 485.128 39.416 486.256 40.592C487.408 41.744 487.984 43.412 487.984 45.596V53.516C487.984 54.164 487.984 54.824 487.984 55.496C488.008 56.168 488.056 56.768 488.128 57.296C488.152 57.632 488.02 57.8 487.732 57.8H484.852ZM477.544 52.292C477.544 53.132 477.796 53.768 478.3 54.2C478.804 54.608 479.344 54.812 479.92 54.812C481.192 54.812 482.236 54.32 483.052 53.336C483.868 52.328 484.276 51.116 484.276 49.7V49.304C481.708 49.304 479.944 49.568 478.984 50.096C478.024 50.6 477.544 51.332 477.544 52.292ZM504.436 38.864C505.54 38.864 506.5 39.104 507.316 39.584C508.156 40.04 508.864 40.7 509.44 41.564C510.04 42.404 510.496 43.448 510.808 44.696C511.12 45.92 511.276 47.228 511.276 48.62C511.276 49.676 511.108 50.852 510.772 52.148C510.46 53.42 510.004 54.512 509.404 55.424C508.828 56.336 508.12 57.032 507.28 57.512C506.464 58.016 505.516 58.268 504.436 58.268C503.644 58.268 502.888 58.076 502.168 57.692C501.472 57.332 500.86 56.78 500.332 56.036V62.732C500.332 62.924 500.308 63.044 500.26 63.092C500.212 63.14 500.116 63.164 499.972 63.164H496.876C496.612 63.164 496.48 63.02 496.48 62.732V39.836C496.48 39.476 496.648 39.296 496.984 39.296H499.864C500.176 39.296 500.332 39.476 500.332 39.836V41.24C500.74 40.52 501.328 39.944 502.096 39.512C502.864 39.08 503.644 38.864 504.436 38.864ZM503.608 54.596C504.76 54.596 505.648 53.996 506.272 52.796C506.896 51.596 507.208 50.204 507.208 48.62C507.208 46.916 506.884 45.476 506.236 44.3C505.588 43.1 504.712 42.5 503.608 42.5C503.152 42.5 502.708 42.656 502.276 42.968C501.844 43.28 501.46 43.724 501.124 44.3C500.812 44.876 500.572 45.572 500.404 46.388C500.236 47.18 500.152 47.924 500.152 48.62C500.152 50.324 500.452 51.752 501.052 52.904C501.676 54.032 502.528 54.596 503.608 54.596ZM526.936 38.864C528.04 38.864 529 39.104 529.816 39.584C530.656 40.04 531.364 40.7 531.94 41.564C532.54 42.404 532.996 43.448 533.308 44.696C533.62 45.92 533.776 47.228 533.776 48.62C533.776 49.676 533.608 50.852 533.272 52.148C532.96 53.42 532.504 54.512 531.904 55.424C531.328 56.336 530.62 57.032 529.78 57.512C528.964 58.016 528.016 58.268 526.936 58.268C526.144 58.268 525.388 58.076 524.668 57.692C523.972 57.332 523.36 56.78 522.832 56.036V62.732C522.832 62.924 522.808 63.044 522.76 63.092C522.712 63.14 522.616 63.164 522.472 63.164H519.376C519.112 63.164 518.98 63.02 518.98 62.732V39.836C518.98 39.476 519.148 39.296 519.484 39.296H522.364C522.676 39.296 522.832 39.476 522.832 39.836V41.24C523.24 40.52 523.828 39.944 524.596 39.512C525.364 39.08 526.144 38.864 526.936 38.864ZM526.108 54.596C527.26 54.596 528.148 53.996 528.772 52.796C529.396 51.596 529.708 50.204 529.708 48.62C529.708 46.916 529.384 45.476 528.736 44.3C528.088 43.1 527.212 42.5 526.108 42.5C525.652 42.5 525.208 42.656 524.776 42.968C524.344 43.28 523.96 43.724 523.624 44.3C523.312 44.876 523.072 45.572 522.904 46.388C522.736 47.18 522.652 47.924 522.652 48.62C522.652 50.324 522.952 51.752 523.552 52.904C524.176 54.032 525.028 54.596 526.108 54.596ZM541.912 57.8C541.792 57.8 541.684 57.752 541.588 57.656C541.516 57.584 541.48 57.476 541.48 57.332V54.524C541.48 54.404 541.516 54.308 541.588 54.236C541.684 54.14 541.792 54.092 541.912 54.092H546.808V43.004H542.56C542.44 43.004 542.332 42.968 542.236 42.896C542.164 42.8 542.128 42.68 542.128 42.536V39.728C542.128 39.608 542.164 39.512 542.236 39.44C542.332 39.344 542.44 39.296 542.56 39.296H550.264C550.384 39.296 550.48 39.344 550.552 39.44C550.648 39.512 550.696 39.608 550.696 39.728V54.092H555.124C555.244 54.092 555.34 54.14 555.412 54.236C555.508 54.308 555.556 54.404 555.556 54.524V57.332C555.556 57.644 555.412 57.8 555.124 57.8H541.912ZM548.248 36.452C547.48 36.452 546.832 36.188 546.304 35.66C545.776 35.132 545.512 34.496 545.512 33.752C545.512 32.96 545.776 32.3 546.304 31.772C546.832 31.22 547.48 30.944 548.248 30.944C549.04 30.944 549.7 31.22 550.228 31.772C550.78 32.3 551.056 32.96 551.056 33.752C551.056 34.496 550.78 35.132 550.228 35.66C549.7 36.188 549.04 36.452 548.248 36.452ZM574.636 57.8C574.516 57.8 574.408 57.74 574.312 57.62C574.24 57.524 574.204 57.416 574.204 57.296V47.252C574.204 45.524 573.976 44.276 573.52 43.508C573.088 42.74 572.428 42.356 571.54 42.356C570.508 42.356 569.644 42.8 568.948 43.688C568.276 44.552 567.94 45.812 567.94 47.468V57.332C567.94 57.644 567.796 57.8 567.508 57.8H564.556C564.436 57.8 564.328 57.74 564.232 57.62C564.16 57.524 564.124 57.416 564.124 57.296V44.372C564.124 43.46 564.112 42.584 564.088 41.744C564.088 40.904 564.064 40.244 564.016 39.764C563.968 39.452 564.136 39.296 564.52 39.296H567.328C567.592 39.296 567.7 39.392 567.652 39.584L567.616 40.88C568.024 40.304 568.588 39.812 569.308 39.404C570.052 38.996 570.832 38.792 571.648 38.792C573.376 38.792 574.864 39.44 576.112 40.736C577.384 42.008 578.02 44 578.02 46.712V57.332C578.02 57.644 577.876 57.8 577.588 57.8H574.636ZM600.664 49.628C600.664 49.82 600.616 49.964 600.52 50.06C600.448 50.132 600.34 50.168 600.196 50.168H590.332C590.356 51.44 590.68 52.532 591.304 53.444C591.952 54.332 592.984 54.776 594.4 54.776C595.264 54.776 596.02 54.68 596.668 54.488C597.34 54.272 598.024 53.912 598.72 53.408C598.912 53.312 599.02 53.324 599.044 53.444C599.092 53.564 599.116 53.708 599.116 53.876V56.432C599.116 56.648 599.08 56.804 599.008 56.9C598.936 57.02 598.816 57.14 598.648 57.26C598.024 57.596 597.388 57.86 596.74 58.052C596.116 58.244 595.336 58.34 594.4 58.34C591.664 58.34 589.624 57.464 588.28 55.712C586.936 53.96 586.264 51.644 586.264 48.764C586.264 47.54 586.408 46.352 586.696 45.2C586.984 44.024 587.428 42.968 588.028 42.032C588.652 41.096 589.432 40.328 590.368 39.728C591.304 39.128 592.384 38.828 593.608 38.828C594.904 38.828 595.996 39.104 596.884 39.656C597.796 40.208 598.528 40.94 599.08 41.852C599.656 42.74 600.064 43.76 600.304 44.912C600.568 46.064 600.7 47.312 600.7 48.656C600.7 48.824 600.688 49.016 600.664 49.232C600.664 49.424 600.664 49.556 600.664 49.628ZM593.536 42.284C592.96 42.284 592.444 42.452 591.988 42.788C591.556 43.1 591.208 43.532 590.944 44.084C590.704 44.612 590.536 45.104 590.44 45.56C590.368 45.992 590.332 46.34 590.332 46.604H596.776C596.776 46.34 596.728 45.992 596.632 45.56C596.56 45.104 596.392 44.612 596.128 44.084C595.888 43.532 595.54 43.1 595.084 42.788C594.628 42.452 594.112 42.284 593.536 42.284ZM619.96 57.044C618.736 57.884 617.2 58.316 615.352 58.34C614.872 58.34 614.368 58.316 613.84 58.268C613.336 58.22 612.856 58.16 612.4 58.088C611.968 58.04 611.524 57.956 611.068 57.836C610.636 57.74 610.312 57.644 610.096 57.548C610 57.524 609.892 57.464 609.772 57.368C609.676 57.272 609.64 57.14 609.664 56.972L609.88 54.56C609.904 54.344 609.94 54.212 609.988 54.164C610.036 54.116 610.192 54.128 610.456 54.2C611.296 54.44 612.124 54.62 612.94 54.74C613.78 54.836 614.536 54.884 615.208 54.884C616.264 54.884 617.044 54.704 617.548 54.344C618.076 53.96 618.34 53.444 618.34 52.796C618.34 52.46 618.208 52.112 617.944 51.752C617.68 51.368 617.236 50.984 616.612 50.6C615.964 50.216 615.292 49.832 614.596 49.448C613.9 49.04 613.216 48.656 612.544 48.296C611.776 47.864 611.128 47.264 610.6 46.496C610.096 45.728 609.844 44.984 609.844 44.264C609.844 43.376 610.024 42.584 610.384 41.888C610.744 41.168 611.224 40.568 611.824 40.088C612.424 39.608 613.108 39.26 613.876 39.044C614.668 38.828 615.496 38.72 616.36 38.72C616.816 38.72 617.284 38.744 617.764 38.792C618.268 38.84 618.748 38.912 619.204 39.008C619.684 39.08 620.104 39.176 620.464 39.296C620.848 39.392 621.136 39.5 621.328 39.62C621.448 39.668 621.508 39.728 621.508 39.8C621.532 39.848 621.532 39.932 621.508 40.052L621.292 42.428C621.268 42.668 621.196 42.824 621.076 42.896C620.956 42.944 620.788 42.92 620.572 42.824C620.116 42.656 619.6 42.5 619.024 42.356C618.568 42.26 618.124 42.2 617.692 42.176C617.284 42.128 616.912 42.104 616.576 42.104C615.592 42.104 614.896 42.284 614.488 42.644C614.08 43.004 613.876 43.4 613.876 43.832C613.876 44.24 614.104 44.66 614.56 45.092C615.016 45.5 615.592 45.884 616.288 46.244C617.056 46.628 617.752 47.012 618.376 47.396C619 47.756 619.468 48.056 619.78 48.296C620.644 48.896 621.292 49.556 621.724 50.276C622.156 50.972 622.372 51.704 622.372 52.472C622.372 54.344 621.568 55.868 619.96 57.044ZM642.46 57.044C641.236 57.884 639.7 58.316 637.852 58.34C637.372 58.34 636.868 58.316 636.34 58.268C635.836 58.22 635.356 58.16 634.9 58.088C634.468 58.04 634.024 57.956 633.568 57.836C633.136 57.74 632.812 57.644 632.596 57.548C632.5 57.524 632.392 57.464 632.272 57.368C632.176 57.272 632.14 57.14 632.164 56.972L632.38 54.56C632.404 54.344 632.44 54.212 632.488 54.164C632.536 54.116 632.692 54.128 632.956 54.2C633.796 54.44 634.624 54.62 635.44 54.74C636.28 54.836 637.036 54.884 637.708 54.884C638.764 54.884 639.544 54.704 640.048 54.344C640.576 53.96 640.84 53.444 640.84 52.796C640.84 52.46 640.708 52.112 640.444 51.752C640.18 51.368 639.736 50.984 639.112 50.6C638.464 50.216 637.792 49.832 637.096 49.448C636.4 49.04 635.716 48.656 635.044 48.296C634.276 47.864 633.628 47.264 633.1 46.496C632.596 45.728 632.344 44.984 632.344 44.264C632.344 43.376 632.524 42.584 632.884 41.888C633.244 41.168 633.724 40.568 634.324 40.088C634.924 39.608 635.608 39.26 636.376 39.044C637.168 38.828 637.996 38.72 638.86 38.72C639.316 38.72 639.784 38.744 640.264 38.792C640.768 38.84 641.248 38.912 641.704 39.008C642.184 39.08 642.604 39.176 642.964 39.296C643.348 39.392 643.636 39.5 643.828 39.62C643.948 39.668 644.008 39.728 644.008 39.8C644.032 39.848 644.032 39.932 644.008 40.052L643.792 42.428C643.768 42.668 643.696 42.824 643.576 42.896C643.456 42.944 643.288 42.92 643.072 42.824C642.616 42.656 642.1 42.5 641.524 42.356C641.068 42.26 640.624 42.2 640.192 42.176C639.784 42.128 639.412 42.104 639.076 42.104C638.092 42.104 637.396 42.284 636.988 42.644C636.58 43.004 636.376 43.4 636.376 43.832C636.376 44.24 636.604 44.66 637.06 45.092C637.516 45.5 638.092 45.884 638.788 46.244C639.556 46.628 640.252 47.012 640.876 47.396C641.5 47.756 641.968 48.056 642.28 48.296C643.144 48.896 643.792 49.556 644.224 50.276C644.656 50.972 644.872 51.704 644.872 52.472C644.872 54.344 644.068 55.868 642.46 57.044Z" fill="#A180E5"/>
</svg>
