<?xml version="1.0" encoding="utf-8"?>
<!-- Generator: Adobe Illustrator 24.2.3, SVG Export Plug-In . SVG Version: 6.00 Build 0)  -->
<svg version="1.1" id="Layer_1" xmlns="http://www.w3.org/2000/svg" xmlns:xlink="http://www.w3.org/1999/xlink" x="0px" y="0px"
	 viewBox="0 0 878 92" style="enable-background:new 0 0 878 92;" xml:space="preserve">
<style type="text/css">
	.st0{fill:#1D2225;}
	.st1{fill:#B4CCE7;}
</style>
<g id="XMLID_1_">
	<g>
		<path class="st0" d="M832,0c25.4,0,46,20.6,46,46c0,12.7-5.2,24.2-13.5,32.5C856.2,86.8,844.7,92,832,92H46C20.6,92,0,71.4,0,46
			c0-12.7,5.2-24.2,13.5-32.5C21.8,5.2,33.3,0,46,0H832z"/>
	</g>
	<g>
	</g>
</g>
<g id="XMLID_2_">
	<g>
		<path class="st1" d="M644.2,50.3c0.4,0.7,0.7,1.4,0.7,2.2c0,1.9-0.8,3.4-2.4,4.6c-1.2,0.8-2.8,1.3-4.6,1.3c-0.5,0-1,0-1.5-0.1
			c-0.5,0-1-0.1-1.4-0.2c-0.4,0-0.9-0.1-1.3-0.3c-0.4-0.1-0.8-0.2-1-0.3c-0.1,0-0.2-0.1-0.3-0.2c-0.1-0.1-0.1-0.2-0.1-0.4l0.2-2.4
			c0-0.2,0.1-0.4,0.1-0.4c0,0,0.2,0,0.5,0c0.8,0.2,1.7,0.4,2.5,0.5c0.8,0.1,1.6,0.1,2.3,0.1c1,0,1.8-0.2,2.3-0.5
			c0.5-0.4,0.8-0.9,0.8-1.5c0-0.3-0.1-0.7-0.4-1c-0.3-0.4-0.7-0.8-1.3-1.2c-0.6-0.4-1.3-0.8-2-1.1c-0.7-0.4-1.4-0.8-2.1-1.2
			c-0.8-0.4-1.4-1-1.9-1.8c-0.5-0.8-0.8-1.5-0.8-2.2c0-0.9,0.2-1.7,0.5-2.4c0.4-0.7,0.8-1.3,1.4-1.8c0.6-0.5,1.3-0.8,2.1-1
			c0.8-0.2,1.6-0.3,2.5-0.3c0.5,0,0.9,0,1.4,0.1c0.5,0,1,0.1,1.4,0.2c0.5,0.1,0.9,0.2,1.3,0.3c0.4,0.1,0.7,0.2,0.9,0.3
			c0.1,0,0.2,0.1,0.2,0.2c0,0,0,0.1,0,0.3l-0.2,2.4c0,0.2-0.1,0.4-0.2,0.5c-0.1,0-0.3,0-0.5-0.1c-0.5-0.2-1-0.3-1.5-0.5
			c-0.5-0.1-0.9-0.2-1.3-0.2c-0.4,0-0.8-0.1-1.1-0.1c-1,0-1.7,0.2-2.1,0.5c-0.4,0.4-0.6,0.8-0.6,1.2c0,0.4,0.2,0.8,0.7,1.3
			c0.5,0.4,1,0.8,1.7,1.2c0.8,0.4,1.5,0.8,2.1,1.2c0.6,0.4,1.1,0.7,1.4,0.9C643.1,48.9,643.8,49.6,644.2,50.3z"/>
		<path class="st1" d="M621.7,50.3c0.4,0.7,0.7,1.4,0.7,2.2c0,1.9-0.8,3.4-2.4,4.6c-1.2,0.8-2.8,1.3-4.6,1.3c-0.5,0-1,0-1.5-0.1
			c-0.5,0-1-0.1-1.4-0.2c-0.4,0-0.9-0.1-1.3-0.3c-0.4-0.1-0.8-0.2-1-0.3c-0.1,0-0.2-0.1-0.3-0.2c-0.1-0.1-0.1-0.2-0.1-0.4l0.2-2.4
			c0-0.2,0.1-0.4,0.1-0.4c0,0,0.2,0,0.5,0c0.8,0.2,1.7,0.4,2.5,0.5c0.8,0.1,1.6,0.1,2.3,0.1c1,0,1.8-0.2,2.3-0.5
			c0.5-0.4,0.8-0.9,0.8-1.5c0-0.3-0.1-0.7-0.4-1c-0.3-0.4-0.7-0.8-1.3-1.2c-0.6-0.4-1.3-0.8-2-1.1c-0.7-0.4-1.4-0.8-2.1-1.2
			c-0.8-0.4-1.4-1-1.9-1.8c-0.5-0.8-0.8-1.5-0.8-2.2c0-0.9,0.2-1.7,0.5-2.4c0.4-0.7,0.8-1.3,1.4-1.8c0.6-0.5,1.3-0.8,2.1-1
			c0.8-0.2,1.6-0.3,2.5-0.3c0.5,0,0.9,0,1.4,0.1c0.5,0,1,0.1,1.4,0.2c0.5,0.1,0.9,0.2,1.3,0.3c0.4,0.1,0.7,0.2,0.9,0.3
			c0.1,0,0.2,0.1,0.2,0.2c0,0,0,0.1,0,0.3l-0.2,2.4c0,0.2-0.1,0.4-0.2,0.5c-0.1,0-0.3,0-0.5-0.1c-0.5-0.2-1-0.3-1.5-0.5
			c-0.5-0.1-0.9-0.2-1.3-0.2c-0.4,0-0.8-0.1-1.1-0.1c-1,0-1.7,0.2-2.1,0.5c-0.4,0.4-0.6,0.8-0.6,1.2c0,0.4,0.2,0.8,0.7,1.3
			c0.5,0.4,1,0.8,1.7,1.2c0.8,0.4,1.5,0.8,2.1,1.2c0.6,0.4,1.1,0.7,1.4,0.9C620.6,48.9,621.3,49.6,621.7,50.3z"/>
		<path class="st1" d="M600.7,48.7c0,0.2,0,0.4,0,0.6c0,0.2,0,0.3,0,0.4c0,0.2,0,0.3-0.1,0.4c-0.1,0.1-0.2,0.1-0.3,0.1h-9.9
			c0,1.3,0.3,2.4,1,3.3c0.7,0.9,1.7,1.3,3.1,1.3c0.9,0,1.6-0.1,2.3-0.3c0.7-0.2,1.4-0.6,2-1.1c0.2-0.1,0.3-0.1,0.3,0
			c0.1,0.1,0.1,0.3,0.1,0.4v2.5c0,0.2,0,0.4-0.1,0.5c-0.1,0.1-0.2,0.2-0.4,0.4c-0.6,0.3-1.3,0.6-1.9,0.8c-0.6,0.2-1.4,0.3-2.3,0.3
			c-2.7,0-4.8-0.9-6.1-2.6c-1.3-1.8-2-4.1-2-7c0-1.2,0.1-2.4,0.4-3.6C587,44,587.4,43,588,42c0.6-0.9,1.4-1.7,2.3-2.3
			c0.9-0.6,2-0.9,3.2-0.9c1.3,0,2.4,0.3,3.3,0.8c0.9,0.5,1.7,1.3,2.2,2.2c0.6,0.9,1,1.9,1.2,3.1C600.6,46.1,600.7,47.3,600.7,48.7z
			 M590.3,46.6h6.5c0-0.3-0.1-0.6-0.2-1c-0.1-0.5-0.2-1-0.5-1.5c-0.2-0.6-0.6-1-1-1.3c-0.5-0.3-1-0.5-1.5-0.5
			c-0.6,0-1.1,0.2-1.5,0.5c-0.4,0.3-0.8,0.7-1,1.3c-0.2,0.5-0.4,1-0.5,1.5C590.4,46,590.3,46.3,590.3,46.6z"/>
		<path class="st1" d="M578,46.7v10.6c0,0.3-0.1,0.5-0.4,0.5h-3c-0.1,0-0.2-0.1-0.3-0.2c-0.1-0.1-0.1-0.2-0.1-0.3v-10
			c0-1.7-0.2-3-0.7-3.7c-0.4-0.8-1.1-1.1-2-1.1c-1,0-1.9,0.4-2.6,1.3c-0.7,0.9-1,2.1-1,3.8v9.9c0,0.3-0.1,0.5-0.4,0.5h-3
			c-0.1,0-0.2-0.1-0.3-0.2c-0.1-0.1-0.1-0.2-0.1-0.3V44.4c0-0.9,0-1.8,0-2.6c0-0.8,0-1.5-0.1-2c-0.1-0.3,0.1-0.5,0.5-0.5h2.8
			c0.3,0,0.4,0.1,0.3,0.3l0,1.3c0.4-0.6,1-1.1,1.7-1.5c0.7-0.4,1.5-0.6,2.3-0.6c1.7,0,3.2,0.6,4.5,2C577.4,42,578,44,578,46.7z"/>
		<path class="st1" d="M555.6,54.5v2.8c0,0.3-0.2,0.5-0.4,0.5h-13.2c-0.1,0-0.2,0-0.3-0.1c-0.1-0.1-0.1-0.2-0.1-0.3v-2.8
			c0-0.1,0-0.2,0.1-0.3c0.1-0.1,0.2-0.2,0.3-0.2h4.9V43h-4.3c-0.1,0-0.2,0-0.3-0.1c-0.1-0.1-0.1-0.2-0.1-0.4v-2.8
			c0-0.1,0-0.2,0.1-0.3c0.1-0.1,0.2-0.1,0.3-0.1h7.7c0.1,0,0.2,0,0.3,0.1c0.1,0.1,0.2,0.2,0.2,0.3v14.4h4.4c0.1,0,0.2,0,0.3,0.2
			C555.5,54.3,555.6,54.4,555.6,54.5z"/>
		<path class="st1" d="M550.2,31.8c0.6,0.5,0.8,1.2,0.8,2c0,0.8-0.3,1.4-0.8,1.9c-0.5,0.5-1.2,0.8-2,0.8c-0.8,0-1.4-0.3-2-0.8
			c-0.5-0.5-0.8-1.2-0.8-1.9c0-0.8,0.3-1.5,0.8-2c0.5-0.6,1.2-0.8,2-0.8C549,30.9,549.7,31.2,550.2,31.8z"/>
		<path class="st1" d="M533.3,44.7c0.3,1.2,0.5,2.5,0.5,3.9c0,1.1-0.2,2.2-0.5,3.5c-0.3,1.3-0.8,2.4-1.4,3.3
			c-0.6,0.9-1.3,1.6-2.1,2.1c-0.8,0.5-1.8,0.8-2.8,0.8c-0.8,0-1.5-0.2-2.3-0.6c-0.7-0.4-1.3-0.9-1.8-1.6v6.7c0,0.2,0,0.3-0.1,0.4
			s-0.1,0.1-0.3,0.1h-3.1c-0.3,0-0.4-0.1-0.4-0.4V39.8c0-0.4,0.2-0.5,0.5-0.5h2.9c0.3,0,0.5,0.2,0.5,0.5v1.4c0.4-0.7,1-1.3,1.8-1.7
			c0.8-0.4,1.5-0.6,2.3-0.6c1.1,0,2.1,0.2,2.9,0.7c0.8,0.5,1.5,1.1,2.1,2C532.5,42.4,533,43.5,533.3,44.7z M528.8,52.8
			c0.6-1.2,0.9-2.6,0.9-4.2c0-1.7-0.3-3.1-1-4.3c-0.6-1.2-1.5-1.8-2.6-1.8c-0.5,0-0.9,0.2-1.3,0.5c-0.4,0.3-0.8,0.8-1.2,1.3
			c-0.3,0.6-0.5,1.3-0.7,2.1c-0.2,0.8-0.3,1.5-0.3,2.2c0,1.7,0.3,3.1,0.9,4.3c0.6,1.1,1.5,1.7,2.6,1.7
			C527.3,54.6,528.2,54,528.8,52.8z"/>
		<path class="st1" d="M510.8,44.7c0.3,1.2,0.5,2.5,0.5,3.9c0,1.1-0.2,2.2-0.5,3.5c-0.3,1.3-0.8,2.4-1.4,3.3
			c-0.6,0.9-1.3,1.6-2.1,2.1c-0.8,0.5-1.8,0.8-2.8,0.8c-0.8,0-1.5-0.2-2.3-0.6c-0.7-0.4-1.3-0.9-1.8-1.6v6.7c0,0.2,0,0.3-0.1,0.4
			c-0.1,0-0.1,0.1-0.3,0.1h-3.1c-0.3,0-0.4-0.1-0.4-0.4V39.8c0-0.4,0.2-0.5,0.5-0.5h2.9c0.3,0,0.5,0.2,0.5,0.5v1.4
			c0.4-0.7,1-1.3,1.8-1.7c0.8-0.4,1.5-0.6,2.3-0.6c1.1,0,2.1,0.2,2.9,0.7c0.8,0.5,1.5,1.1,2.1,2C510,42.4,510.5,43.5,510.8,44.7z
			 M506.3,52.8c0.6-1.2,0.9-2.6,0.9-4.2c0-1.7-0.3-3.1-1-4.3c-0.6-1.2-1.5-1.8-2.6-1.8c-0.5,0-0.9,0.2-1.3,0.5
			c-0.4,0.3-0.8,0.8-1.2,1.3c-0.3,0.6-0.5,1.3-0.7,2.1c-0.2,0.8-0.3,1.5-0.3,2.2c0,1.7,0.3,3.1,0.9,4.3c0.6,1.1,1.5,1.7,2.6,1.7
			C504.8,54.6,505.6,54,506.3,52.8z"/>
		<path class="st1" d="M488.1,57.3c0,0.3-0.1,0.5-0.4,0.5h-2.9c-0.2,0-0.3,0-0.3,0c0,0,0-0.1,0-0.3v-1.6c-0.6,0.8-1.3,1.5-2.2,1.9
			c-0.9,0.4-1.7,0.7-2.6,0.7c-0.7,0-1.4-0.1-2.2-0.4c-0.8-0.2-1.4-0.6-2-1.1c-0.5-0.5-1-1.1-1.3-1.8c-0.3-0.7-0.5-1.6-0.5-2.5
			c0-1,0.2-2,0.6-2.8c0.4-0.9,1.1-1.6,2-2.2c0.9-0.6,1.9-1,3.1-1.3c1.3-0.3,2.8-0.4,4.8-0.4c0-0.4-0.1-0.8-0.1-1.2
			c-0.1-0.4-0.2-0.8-0.4-1.1c-0.2-0.3-0.5-0.6-0.9-0.8c-0.4-0.2-0.9-0.4-1.4-0.4c-0.8,0-1.6,0.1-2.4,0.4c-0.8,0.3-1.6,0.7-2.3,1.1
			c-0.4,0.2-0.6,0.4-0.8,0.3c-0.1,0-0.2-0.2-0.2-0.4v-2.8c0,0,0-0.1,0-0.3c0-0.1,0.1-0.3,0.2-0.3c0.1-0.1,0.3-0.2,0.5-0.3
			c0.7-0.4,1.5-0.7,2.4-1c0.9-0.3,1.7-0.4,2.6-0.4c2.3,0,4,0.6,5.2,1.8c1.1,1.2,1.7,2.8,1.7,5v7.9c0,0.6,0,1.3,0,2
			C488,56.2,488.1,56.8,488.1,57.3z M484.3,49.7v-0.4c-2.6,0-4.3,0.3-5.3,0.8c-1,0.5-1.4,1.2-1.4,2.2c0,0.8,0.3,1.5,0.8,1.9
			c0.5,0.4,1,0.6,1.6,0.6c1.3,0,2.3-0.5,3.1-1.5C483.9,52.3,484.3,51.1,484.3,49.7z"/>
		<path class="st1" d="M465.1,47.8v9.6c0,0.1,0,0.2-0.1,0.3c-0.1,0.1-0.1,0.1-0.3,0.1h-3c-0.3,0-0.4-0.1-0.4-0.4v-9.6
			c0-1.8-0.2-3.1-0.6-3.9c-0.4-0.8-1.1-1.3-2-1.3c-2.2,0-3.4,1.3-3.6,3.8v11c0,0.3-0.1,0.4-0.4,0.4h-3c-0.1,0-0.2,0-0.3-0.1
			c-0.1-0.1-0.1-0.2-0.1-0.3V31.2c0-0.1,0-0.2,0.1-0.3c0.1-0.1,0.2-0.1,0.3-0.1h2.8c0.1,0,0.2,0.1,0.3,0.1c0.1,0.1,0.1,0.2,0.1,0.3
			v9.7c0.5-0.7,1.1-1.1,1.8-1.4c0.7-0.3,1.5-0.5,2.2-0.5C463,38.9,465.1,41.9,465.1,47.8z"/>
		<path class="st1" d="M420.5,44.8c0.3,1.2,0.5,2.4,0.5,3.8c0,1.3-0.2,2.6-0.5,3.7c-0.3,1.1-0.8,2.1-1.3,3c-0.7,1-1.5,1.8-2.5,2.3
			c-0.9,0.5-2,0.8-3.2,0.8c-1.2,0-2.3-0.3-3.2-0.8c-0.9-0.5-1.7-1.2-2.3-2.1c-0.6-0.9-1.1-2-1.4-3.1c-0.3-1.2-0.5-2.4-0.5-3.8
			c0-1.3,0.2-2.6,0.5-3.8c0.3-1.2,0.8-2.2,1.4-3.1c0.6-0.9,1.4-1.6,2.3-2.1c0.9-0.5,2-0.8,3.2-0.8c1.2,0,2.3,0.3,3.2,0.8
			c0.9,0.5,1.7,1.2,2.3,2.1C419.7,42.6,420.1,43.6,420.5,44.8z M417,48.6c0-0.7-0.1-1.5-0.3-2.2c-0.1-0.8-0.4-1.4-0.6-2
			c-0.3-0.6-0.6-1.1-1.1-1.4c-0.4-0.4-0.9-0.6-1.5-0.6c-0.6,0-1.1,0.2-1.6,0.5c-0.4,0.4-0.8,0.8-1.1,1.4c-0.3,0.6-0.5,1.2-0.6,2
			c-0.1,0.8-0.2,1.5-0.2,2.2c0,0.8,0.1,1.5,0.2,2.3c0.2,0.7,0.4,1.4,0.6,2c0.3,0.6,0.6,1.1,1.1,1.4c0.4,0.4,1,0.5,1.6,0.5
			c0.6,0,1.1-0.2,1.5-0.5c0.5-0.4,0.8-0.8,1.1-1.4c0.3-0.6,0.5-1.3,0.6-2C416.9,50.1,417,49.3,417,48.6z"/>
		<path class="st1" d="M398.2,57c0,0.2,0,0.3-0.2,0.4c-0.9,0.3-1.8,0.5-2.7,0.7c-0.9,0.1-1.6,0.2-2.3,0.2c-1.3,0-2.3-0.2-3-0.7
			c-0.7-0.4-1.3-0.9-1.6-1.4c-0.3-0.6-0.5-1.4-0.6-2.2s-0.1-2-0.1-3.4v-6.8h-4c-0.1,0-0.2,0-0.3-0.1c-0.1-0.1-0.1-0.2-0.1-0.3v-2.9
			c0-0.1,0-0.2,0.1-0.3c0.1-0.1,0.2-0.2,0.3-0.2h4v-5.2c0-0.1,0.1-0.2,0.2-0.3c0.1-0.1,0.2-0.1,0.3-0.1h2.9c0.1,0,0.3,0,0.3,0.1
			c0.1,0.1,0.1,0.2,0.1,0.3V40h6.1c0.1,0,0.2,0,0.3,0.2c0.1,0.1,0.1,0.2,0.1,0.3v2.9c0,0.1,0,0.2-0.1,0.3c-0.1,0.1-0.2,0.1-0.3,0.1
			h-6.1v7c0,1.6,0,2.6,0.1,3c0,0.5,0.3,0.7,0.6,0.8c0.4,0.1,1,0.1,1.6,0.1c0.5,0,1.1-0.1,1.7-0.2c0.6-0.1,1.2-0.3,1.8-0.5
			c0.1,0,0.2,0,0.3,0c0.1,0,0.1,0.1,0.2,0.3L398.2,57z"/>
		<path class="st1" d="M353,46.7v10.6c0,0.3-0.1,0.5-0.4,0.5h-2.9c-0.1,0-0.2-0.1-0.3-0.2c-0.1-0.1-0.1-0.2-0.1-0.3v-10
			c0-1.7-0.2-3-0.7-3.7c-0.4-0.8-1.1-1.1-2-1.1c-1,0-1.9,0.4-2.6,1.3c-0.7,0.9-1,2.1-1,3.8v9.9c0,0.3-0.1,0.5-0.4,0.5h-3
			c-0.1,0-0.2-0.1-0.3-0.2c-0.1-0.1-0.1-0.2-0.1-0.3V44.4c0-0.9,0-1.8,0-2.6c0-0.8,0-1.5-0.1-2c0-0.3,0.1-0.5,0.5-0.5h2.8
			c0.3,0,0.4,0.1,0.3,0.3l0,1.3c0.4-0.6,1-1.1,1.7-1.5c0.7-0.4,1.5-0.6,2.3-0.6c1.7,0,3.2,0.6,4.5,2C352.4,42,353,44,353,46.7z"/>
		<path class="st1" d="M332.2,40c0.1,0.1,0.2,0.2,0.1,0.3c0,0.1-0.1,0.2-0.1,0.3l-1.2,2.5c0,0.1-0.1,0.2-0.3,0.3
			c-0.1,0-0.2,0-0.4-0.1c-0.6-0.3-1.2-0.5-1.8-0.7c-0.7-0.1-1.3-0.1-2,0c-1.1,0.2-2,0.8-2.7,1.6s-1,1.7-1.2,2.6
			c-0.1,0.9-0.2,1.9-0.2,3.1v4h3.7c0.1,0,0.2,0,0.3,0.2c0.1,0.1,0.1,0.2,0.1,0.3v2.8c0,0.3-0.1,0.5-0.4,0.5h-9.7
			c-0.1,0-0.2,0-0.3-0.1c-0.1-0.1-0.1-0.2-0.1-0.3v-2.8c0-0.1,0-0.2,0.1-0.3c0.1-0.1,0.2-0.2,0.3-0.2h2.3v-9.9v-1.3h-3
			c-0.1,0-0.2,0-0.3-0.1c-0.1-0.1-0.1-0.2-0.1-0.4v-2.7c0-0.1,0-0.2,0.1-0.3c0.1-0.1,0.2-0.1,0.3-0.1h5.9c0.1,0,0.2,0,0.2,0.1
			c0.1,0,0.1,0.1,0.1,0.2v3.1c0.2-0.5,0.5-0.9,0.8-1.3c0.3-0.4,0.6-0.7,0.9-1c0.3-0.3,0.7-0.6,1.1-0.8c0.4-0.3,1.1-0.5,1.9-0.7
			c1-0.2,2-0.1,3,0.1C330.7,39.2,331.5,39.5,332.2,40z"/>
		<path class="st1" d="M308,55.3c0,0.7,0,1.4,0,2c0,0.3-0.1,0.5-0.4,0.5h-2.9c-0.1,0-0.2,0-0.3-0.1c-0.1,0-0.1-0.1-0.1-0.3V56
			c-0.5,0.8-1.1,1.4-1.8,1.8c-0.7,0.4-1.5,0.6-2.4,0.6c-1.8,0-3.3-0.7-4.5-2.1c-1.2-1.4-1.7-3.3-1.7-5.9V39.8c0-0.1,0-0.2,0.1-0.3
			c0.1-0.1,0.2-0.2,0.3-0.2h3.1c0.1,0,0.2,0.1,0.3,0.2c0.1,0.1,0.1,0.2,0.1,0.4v10c0,1.8,0.3,3.1,0.8,3.8c0.5,0.7,1.2,1.1,2,1.1
			c1,0,1.9-0.5,2.5-1.5c0.7-1,1-2.5,1-4.4v-9.1c0-0.1,0-0.2,0.1-0.3c0.1-0.1,0.2-0.2,0.4-0.2h3c0.1,0,0.2,0.1,0.3,0.2
			c0.1,0.1,0.1,0.2,0.1,0.4v13.3C308,53.9,308,54.6,308,55.3z"/>
		<path class="st1" d="M285.7,57c0,0.2,0,0.3-0.2,0.4c-0.9,0.3-1.8,0.5-2.7,0.7c-0.9,0.1-1.6,0.2-2.3,0.2c-1.3,0-2.3-0.2-3-0.7
			c-0.7-0.4-1.3-0.9-1.6-1.4c-0.3-0.6-0.5-1.4-0.6-2.2s-0.1-2-0.1-3.4v-6.8h-4c-0.1,0-0.2,0-0.3-0.1c-0.1-0.1-0.1-0.2-0.1-0.3v-2.9
			c0-0.1,0-0.2,0.1-0.3c0.1-0.1,0.2-0.2,0.3-0.2h4v-5.2c0-0.1,0.1-0.2,0.2-0.3c0.1-0.1,0.2-0.1,0.3-0.1h2.9c0.1,0,0.3,0,0.3,0.1
			c0.1,0.1,0.1,0.2,0.1,0.3V40h6.1c0.1,0,0.2,0,0.3,0.2c0.1,0.1,0.1,0.2,0.1,0.3v2.9c0,0.1,0,0.2-0.1,0.3c-0.1,0.1-0.2,0.1-0.3,0.1
			h-6.1v7c0,1.6,0,2.6,0.1,3c0,0.5,0.3,0.7,0.6,0.8c0.4,0.1,1,0.1,1.6,0.1c0.5,0,1.1-0.1,1.7-0.2c0.6-0.1,1.2-0.3,1.8-0.5
			c0.1,0,0.2,0,0.3,0c0.1,0,0.1,0.1,0.2,0.3L285.7,57z"/>
		<path class="st1" d="M263.2,48.7c0,0.2,0,0.4,0,0.6c0,0.2,0,0.3,0,0.4c0,0.2,0,0.3-0.1,0.4c-0.1,0.1-0.2,0.1-0.3,0.1h-9.9
			c0,1.3,0.3,2.4,1,3.3c0.6,0.9,1.7,1.3,3.1,1.3c0.9,0,1.6-0.1,2.3-0.3c0.7-0.2,1.3-0.6,2-1.1c0.2-0.1,0.3-0.1,0.3,0
			c0,0.1,0.1,0.3,0.1,0.4v2.5c0,0.2,0,0.4-0.1,0.5c-0.1,0.1-0.2,0.2-0.4,0.4c-0.6,0.3-1.3,0.6-1.9,0.8c-0.6,0.2-1.4,0.3-2.3,0.3
			c-2.7,0-4.8-0.9-6.1-2.6s-2-4.1-2-7c0-1.2,0.2-2.4,0.4-3.6c0.3-1.2,0.7-2.2,1.3-3.2c0.6-0.9,1.4-1.7,2.3-2.3
			c0.9-0.6,2-0.9,3.2-0.9c1.3,0,2.4,0.3,3.3,0.8c0.9,0.5,1.6,1.3,2.2,2.2c0.6,0.9,1,1.9,1.2,3.1C263.1,46.1,263.2,47.3,263.2,48.7z
			 M252.8,46.6h6.4c0-0.3,0-0.6-0.1-1c-0.1-0.5-0.2-1-0.5-1.5c-0.2-0.6-0.6-1-1.1-1.3c-0.4-0.3-1-0.5-1.5-0.5
			c-0.6,0-1.1,0.2-1.6,0.5c-0.4,0.3-0.8,0.7-1.1,1.3c-0.2,0.5-0.4,1-0.5,1.5C252.9,46,252.8,46.3,252.8,46.6z"/>
		<path class="st1" d="M242.2,40c0.1,0.1,0.2,0.2,0.1,0.3c0,0.1-0.1,0.2-0.1,0.3l-1.2,2.5c-0.1,0.1-0.1,0.2-0.3,0.3
			c-0.1,0-0.2,0-0.4-0.1c-0.6-0.3-1.2-0.5-1.8-0.7c-0.7-0.1-1.3-0.1-2,0c-1.1,0.2-2,0.8-2.7,1.6c-0.6,0.9-1,1.7-1.2,2.6
			c-0.1,0.9-0.2,1.9-0.2,3.1v4h3.7c0.1,0,0.2,0,0.3,0.2c0.1,0.1,0.1,0.2,0.1,0.3v2.8c0,0.3-0.1,0.5-0.4,0.5h-9.7
			c-0.1,0-0.2,0-0.3-0.1c-0.1-0.1-0.1-0.2-0.1-0.3v-2.8c0-0.1,0-0.2,0.1-0.3c0.1-0.1,0.2-0.2,0.3-0.2h2.3v-9.9v-1.3h-3
			c-0.1,0-0.2,0-0.3-0.1c-0.1-0.1-0.1-0.2-0.1-0.4v-2.7c0-0.1,0-0.2,0.1-0.3c0.1-0.1,0.2-0.1,0.3-0.1h5.9c0.1,0,0.2,0,0.2,0.1
			c0.1,0,0.1,0.1,0.1,0.2v3.1c0.2-0.5,0.5-0.9,0.8-1.3c0.3-0.4,0.6-0.7,0.9-1c0.3-0.3,0.7-0.6,1.1-0.8c0.4-0.3,1.1-0.5,1.9-0.7
			c1-0.2,2-0.1,3,0.1C240.7,39.2,241.5,39.5,242.2,40z"/>
	</g>
	<g>
	</g>
</g>
</svg>
