<svg xmlns="http://www.w3.org/2000/svg" viewBox="0 0 98.67 149.87"><defs><style>.cls-1{fill:#fff;}</style></defs><g id="Layer_2" data-name="Layer 2"><g id="Layer_4" data-name="Layer 4"><path class="cls-1" d="M22.7.06h.17l.39,0a5.18,5.18,0,0,0-1.88,1.11c-.45.4-.87.84-1.29,1.27L1.58,21A6.64,6.64,0,0,0,.47,22.4a2.86,2.86,0,0,0-.15,2.79,6.09,6.09,0,0,0,1.22,1.67c1.91,1.9,3.84,3.78,5.74,5.69l38.09,38.1c1.31,1.3,2.64,2.59,4,3.88.13.13.25.27.38.41-.23.24-.42.45-.62.64L22.84,101.84,1.53,123.16a7.45,7.45,0,0,0-1,1.28,2.73,2.73,0,0,0-.17,2.91,6.17,6.17,0,0,0,1.12,1.51l19.65,19.66a9.32,9.32,0,0,0,.75.66,3.17,3.17,0,0,0,2.28.67,3.52,3.52,0,0,0,2.08-1c.77-.71,1.52-1.44,2.25-2.18Q62.81,112.32,97.13,78a11.52,11.52,0,0,0,.82-.89,2.94,2.94,0,0,0,.66-1.43A3.23,3.23,0,0,0,98,73c-.46-.56-1-1.07-1.49-1.58L71,46,26.56,1.51A4.54,4.54,0,0,0,24.4.15l0-.06.12,0h0L24.48,0h-1.7Z"/></g></g></svg>