<svg xmlns="http://www.w3.org/2000/svg" viewBox="0 0 1612.31 1612.31"><defs><style>.cls-1{font-size:36px;fill:#fff;}.cls-1,.cls-3,.cls-6{font-family:Poppins-Regular, Poppins;}.cls-1,.cls-6{letter-spacing:-0.03em;}.cls-2,.cls-5{font-family:Poppins-Bold, Poppins;font-weight:700;}.cls-3,.cls-6{font-weight:400;}.cls-3,.cls-4,.cls-5{letter-spacing:-0.03em;}.cls-7{fill:none;}</style></defs><g id="Layer_2" data-name="Layer 2"><g id="Layer_8" data-name="Layer 8"><text class="cls-1" transform="translate(612.38 1246.1) scale(1.09 1)">I am a <tspan class="cls-2" x="115.63" y="0">Second-Year </tspan><tspan class="cls-2"><tspan x="12.02" y="43.2">Computer Science </tspan><tspan x="-70.81" y="86.4">Engineering Undergraduate</tspan><tspan class="cls-3" x="416.98" y="86.4"> </tspan></tspan><tspan class="cls-4"><tspan x="-171.45" y="129.6">from Mar Baselios College of Engineering </tspan></tspan><tspan x="-68.65" y="172.8">and Technology, Trivandrum.</tspan><tspan x="-12.67" y="216">I am keenly interested </tspan><tspan x="17.46" y="259.2">in all things design.</tspan></text><text class="cls-1" transform="translate(1244.41 1116.21) rotate(-90) scale(1.09 1)">I design trending yet <tspan class="cls-2" x="352.58" y="0">memorable </tspan><tspan class="cls-5"><tspan x="50.51" y="43.2">user-oriented</tspan><tspan class="cls-6" x="295.45" y="43.2" xml:space="preserve"> experiences </tspan></tspan><tspan class="cls-4"><tspan x="67.03" y="86.4">through </tspan><tspan class="cls-2" x="210.74" y="86.4">well thought out </tspan><tspan x="154.73" y="129.6">User Interfaces.</tspan></tspan></text><text class="cls-1" transform="translate(1077.72 367.57) rotate(180) scale(1.09 1)">I’m focused on implementing<tspan class="cls-5"><tspan x="66.31" y="43.2" xml:space="preserve"> ideas and concepts, </tspan></tspan><tspan class="cls-4"><tspan x="29.27" y="86.4">rather than plain designs, </tspan><tspan x="104.85" y="129.6">so as to apply to </tspan></tspan><tspan class="cls-2"><tspan x="40.59" y="172.8">real world applications, </tspan></tspan><tspan x="65.99" y="216">all the while breaking </tspan><tspan class="cls-2"><tspan x="126.72" y="259.2">out of the box.</tspan></tspan></text><text class="cls-1" transform="translate(367.57 602.39) rotate(90) scale(1.09 1)">I’m also well versed in <tspan x="-27.95" y="43.2">creating content tailored </tspan><tspan class="cls-4"><tspan x="-97.79" y="86.4">to </tspan><tspan class="cls-2" x="-55.39" y="86.4">digitally empower your brand </tspan><tspan x="3.83" y="129.6">through Social Media.</tspan></tspan></text><rect class="cls-7" width="1612.31" height="1612.31" rx="806.15" transform="translate(1612.31 1612.31) rotate(-180)"/></g></g></svg>