<svg id="katman_1" data-name="katman 1" xmlns="http://www.w3.org/2000/svg" xmlns:xlink="http://www.w3.org/1999/xlink" viewBox="0 0 1232.94 1232.94"><defs><style>.cls-1{fill:url(#Masterbrand_Gradient);}.cls-2{fill:#fff;}</style><linearGradient id="Masterbrand_Gradient" x1="427.9" y1="921.43" x2="427.9" y2="-311.5" gradientUnits="userSpaceOnUse"><stop offset="0" stop-color="#25f"/><stop offset="1" stop-color="#0af"/></linearGradient></defs><path class="cls-1" d="M427.92-311.5c-340.45,0-616.49,276-616.49,616.46s276,616.47,616.49,616.47S1044.37,645.37,1044.37,305,768.37-311.5,427.92-311.5Z" transform="translate(188.57 311.5)"/><path class="cls-2" d="M319.28,546.83c-65.75,0-131.41-21.77-181.81-65.41-62-53.62-98.74-126.59-103.6-205.49-4.58-76.54,21.38-150.36,73.3-207.72C165.44,3.76,270-96.44,274.39-100.68A70.89,70.89,0,0,1,374.78-98.4,71.28,71.28,0,0,1,372.54,2.2c-1.07,1-105.26,100.9-160.17,161.57-26,28.79-39,65.53-36.72,103.5,2.48,40.31,21.87,78.11,54.65,106.49,43.12,37.36,128.17,45.52,181.39-2.19,31.65-28.49,70.09-70.3,70.47-70.71a71.1,71.1,0,0,1,104.56,96.36c-1.76,1.84-43.45,47.17-80.27,80.28C455.16,523.64,387.17,546.83,319.28,546.83Zm429.4-5.06c-58.33,64.39-162.86,164.58-167.3,168.89a71.09,71.09,0,0,1-98.11-102.91c1-1,105.29-100.93,160.16-161.64,26-28.68,39-65.51,36.69-103.51-2.45-40.27-21.84-78.07-54.66-106.43-43.06-37.27-128.14-45.56-181.34,2.25-31.69,28.4-70.09,70.23-70.44,70.66a71.1,71.1,0,1,1-104.61-96.31c1.77-1.94,43.41-47.3,80.26-80.36,101.05-90.78,266.57-92.59,369-3.94,62,53.63,98.77,126.66,103.58,205.51C826.58,410.54,800.51,484.38,748.68,541.77Z" transform="translate(188.57 311.5)"/></svg>