<?xml version="1.0" encoding="utf-8"?>
<!-- Generator: Adobe Illustrator 24.2.3, SVG Export Plug-In . SVG Version: 6.00 Build 0)  -->
<svg version="1.1" id="Layer_1" xmlns="http://www.w3.org/2000/svg" xmlns:xlink="http://www.w3.org/1999/xlink" x="0px" y="0px"
	 viewBox="0 0 628 92" style="enable-background:new 0 0 628 92;" xml:space="preserve">
<style type="text/css">
	.st0{fill:#1D2225;}
	.st1{fill:#B4CCE7;}
</style>
<path class="st0" d="M166,0h296c25.4,0,46,20.6,46,46l0,0c0,25.4-20.6,46-46,46H166c-25.4,0-46-20.6-46-46l0,0
	C120,20.6,140.6,0,166,0z"/>
<path class="st1" d="M216.7,58c-1.2,0.8-2.8,1.3-4.6,1.3c-0.5,0-1,0-1.5-0.1c-0.5,0-1-0.1-1.4-0.2c-0.4,0-0.9-0.1-1.3-0.3
	c-0.4-0.1-0.8-0.2-1-0.3c-0.1,0-0.2-0.1-0.3-0.2c-0.1-0.1-0.1-0.2-0.1-0.4l0.2-2.4c0-0.2,0.1-0.3,0.1-0.4c0,0,0.2,0,0.5,0
	c0.8,0.2,1.7,0.4,2.5,0.5c0.8,0.1,1.6,0.1,2.3,0.1c1.1,0,1.8-0.2,2.3-0.5c0.5-0.4,0.8-0.9,0.8-1.5c0-0.3-0.1-0.7-0.4-1
	c-0.3-0.4-0.7-0.8-1.3-1.2c-0.6-0.4-1.3-0.8-2-1.2c-0.7-0.4-1.4-0.8-2.1-1.2c-0.8-0.4-1.4-1-1.9-1.8c-0.5-0.8-0.8-1.5-0.8-2.2
	c0-0.9,0.2-1.7,0.5-2.4c0.4-0.7,0.8-1.3,1.4-1.8c0.6-0.5,1.3-0.8,2.1-1c0.8-0.2,1.6-0.3,2.5-0.3c0.5,0,0.9,0,1.4,0.1
	c0.5,0,1,0.1,1.4,0.2c0.5,0.1,0.9,0.2,1.3,0.3c0.4,0.1,0.7,0.2,0.9,0.3c0.1,0,0.2,0.1,0.2,0.2c0,0,0,0.1,0,0.3l-0.2,2.4
	c0,0.2-0.1,0.4-0.2,0.5c-0.1,0-0.3,0-0.5-0.1c-0.5-0.2-1-0.3-1.5-0.5c-0.5-0.1-0.9-0.2-1.3-0.2c-0.4,0-0.8-0.1-1.1-0.1
	c-1,0-1.7,0.2-2.1,0.5c-0.4,0.4-0.6,0.8-0.6,1.2c0,0.4,0.2,0.8,0.7,1.3c0.5,0.4,1,0.8,1.7,1.2c0.8,0.4,1.5,0.8,2.1,1.2
	c0.6,0.4,1.1,0.7,1.4,0.9c0.9,0.6,1.5,1.3,1.9,2c0.4,0.7,0.6,1.4,0.6,2.2C219.1,55.3,218.3,56.9,216.7,58z M242.3,58.4
	c-0.9,0.3-1.8,0.5-2.7,0.7c-0.9,0.1-1.6,0.2-2.3,0.2c-1.2,0-2.2-0.2-3-0.6c-0.7-0.4-1.3-0.9-1.5-1.4c-0.3-0.6-0.5-1.4-0.6-2.2
	c-0.1-0.8-0.1-2-0.1-3.4v-6.8h-4c-0.1,0-0.2,0-0.3-0.1c-0.1-0.1-0.1-0.2-0.1-0.3v-2.8c0-0.1,0-0.2,0.1-0.3c0.1-0.1,0.2-0.1,0.3-0.1
	h4v-5.2c0-0.1,0-0.2,0.1-0.3c0.1-0.1,0.2-0.1,0.3-0.1h2.9c0.1,0,0.3,0,0.3,0.1c0.1,0.1,0.1,0.2,0.1,0.3v5.2h6c0.1,0,0.2,0,0.3,0.1
	c0.1,0.1,0.1,0.2,0.1,0.3v2.8c0,0.1,0,0.2-0.1,0.3c-0.1,0.1-0.2,0.1-0.3,0.1h-6v7c0,1.6,0,2.6,0.1,3c0,0.5,0.3,0.7,0.6,0.8
	c0.4,0.1,0.9,0.1,1.6,0.1c0.6,0,1.1-0.1,1.7-0.2c0.6-0.1,1.2-0.3,1.8-0.5c0.1,0,0.2,0,0.3,0c0,0,0.1,0.1,0.1,0.3l0.3,2.6
	C242.5,58.1,242.4,58.3,242.3,58.4z M250.8,58.8c-0.1,0-0.2,0-0.3-0.1c-0.1-0.1-0.1-0.2-0.1-0.3v-2.8c0-0.1,0-0.2,0.1-0.3
	c0.1-0.1,0.2-0.1,0.3-0.1h2.3v-9.9v-1.3h-3c-0.1,0-0.2,0-0.3-0.1c-0.1-0.1-0.1-0.2-0.1-0.4v-2.7c0-0.1,0-0.2,0.1-0.3
	c0.1-0.1,0.2-0.1,0.3-0.1h5.9c0.1,0,0.2,0,0.2,0.1c0.1,0,0.1,0.1,0.1,0.2v3.1c0.2-0.5,0.5-0.9,0.8-1.3c0.3-0.4,0.6-0.7,0.9-1
	c0.3-0.3,0.7-0.6,1.1-0.8c0.4-0.3,1.1-0.5,1.9-0.7c1-0.2,2-0.1,3,0.1c1,0.2,1.8,0.6,2.4,1.1c0.1,0.1,0.2,0.2,0.1,0.3
	c0,0.1,0,0.2-0.1,0.3l-1.2,2.4c0,0.1-0.1,0.2-0.3,0.3c-0.1,0-0.2,0-0.4-0.1c-0.6-0.3-1.2-0.5-1.8-0.6s-1.3-0.1-2,0
	c-1.1,0.2-2,0.8-2.7,1.6c-0.6,0.9-1,1.7-1.2,2.6c-0.1,0.9-0.2,1.9-0.2,3.1v4h3.7c0.1,0,0.2,0,0.3,0.1c0.1,0.1,0.1,0.2,0.1,0.3v2.8
	c0,0.3-0.1,0.5-0.4,0.5H250.8z M287.4,50.6c0,0.2,0,0.3-0.1,0.4c-0.1,0.1-0.2,0.1-0.3,0.1h-9.9c0,1.3,0.3,2.4,1,3.3
	c0.6,0.9,1.7,1.3,3.1,1.3c0.9,0,1.6-0.1,2.3-0.3c0.7-0.2,1.4-0.6,2.1-1.1c0.2-0.1,0.3-0.1,0.3,0c0,0.1,0.1,0.3,0.1,0.4v2.6
	c0,0.2,0,0.4-0.1,0.5c-0.1,0.1-0.2,0.2-0.4,0.4c-0.6,0.3-1.3,0.6-1.9,0.8c-0.6,0.2-1.4,0.3-2.3,0.3c-2.7,0-4.8-0.9-6.1-2.6
	c-1.3-1.8-2-4.1-2-6.9c0-1.2,0.1-2.4,0.4-3.6c0.3-1.2,0.7-2.2,1.3-3.2c0.6-0.9,1.4-1.7,2.3-2.3c0.9-0.6,2-0.9,3.2-0.9
	c1.3,0,2.4,0.3,3.3,0.8c0.9,0.6,1.6,1.3,2.2,2.2c0.6,0.9,1,1.9,1.2,3.1c0.3,1.2,0.4,2.4,0.4,3.7c0,0.2,0,0.4,0,0.6
	C287.4,50.4,287.4,50.6,287.4,50.6z M280.3,43.3c-0.6,0-1.1,0.2-1.5,0.5c-0.4,0.3-0.8,0.7-1,1.3c-0.2,0.5-0.4,1-0.5,1.5
	c-0.1,0.4-0.1,0.8-0.1,1h6.4c0-0.3,0-0.6-0.1-1c-0.1-0.5-0.2-0.9-0.5-1.5c-0.2-0.6-0.6-1-1-1.3C281.4,43.5,280.9,43.3,280.3,43.3z
	 M306.6,58.8c-0.2,0-0.3,0-0.3,0c0,0,0-0.1,0-0.3v-1.7c-0.6,0.8-1.3,1.5-2.2,1.9c-0.9,0.4-1.7,0.6-2.6,0.6c-0.7,0-1.4-0.1-2.2-0.4
	c-0.8-0.2-1.4-0.6-2-1.1c-0.6-0.5-1-1.1-1.3-1.8c-0.3-0.7-0.5-1.6-0.5-2.5c0-1,0.2-2,0.6-2.8c0.4-0.9,1.1-1.6,1.9-2.2
	c0.9-0.6,1.9-1,3.1-1.3c1.2-0.3,2.8-0.4,4.8-0.4c0-0.4,0-0.8-0.1-1.2c-0.1-0.4-0.2-0.7-0.4-1.1c-0.2-0.3-0.5-0.6-0.9-0.8
	c-0.4-0.2-0.9-0.4-1.4-0.4c-0.8,0-1.6,0.1-2.4,0.4c-0.8,0.3-1.6,0.7-2.3,1.2c-0.4,0.2-0.6,0.3-0.8,0.3c-0.1,0-0.2-0.2-0.2-0.4v-2.8
	c0,0,0-0.1,0-0.3c0-0.1,0-0.3,0.1-0.3c0.1-0.1,0.3-0.2,0.5-0.3c0.7-0.4,1.5-0.7,2.4-1c0.9-0.3,1.7-0.4,2.6-0.4c2.3,0,4,0.6,5.1,1.8
	c1.2,1.2,1.7,2.8,1.7,5v7.9c0,0.6,0,1.3,0,2c0,0.7,0.1,1.3,0.1,1.8c0,0.3-0.1,0.5-0.4,0.5H306.6z M299.3,53.3c0,0.8,0.3,1.5,0.8,1.9
	c0.5,0.4,1,0.6,1.6,0.6c1.3,0,2.3-0.5,3.1-1.5c0.8-1,1.2-2.2,1.2-3.6v-0.4c-2.6,0-4.3,0.3-5.3,0.8C299.8,51.6,299.3,52.3,299.3,53.3
	z M330,58.8c-0.1,0-0.1-0.1-0.2-0.2c0-0.1-0.1-0.2-0.1-0.3V47.2c0-1.2-0.1-2.1-0.3-2.8c-0.2-0.7-0.4-1-0.8-1c-0.2,0-0.5,0.1-0.6,0.4
	c-0.2,0.3-0.3,0.7-0.5,1.3c-0.1,0.6-0.1,1.2-0.1,1.9c0,0.6,0,1.4,0,2.2V58c0,0.3-0.1,0.5-0.2,0.5h-2.9c-0.1,0-0.1-0.1-0.2-0.2
	c0-0.1-0.1-0.2-0.1-0.3V47.2c0-2.5-0.4-3.8-1.2-3.8c-0.4,0-0.7,0.4-0.9,1.2c-0.2,0.8-0.3,1.9-0.3,3.3v10.3c0,0.3-0.1,0.5-0.3,0.5h-3
	c0,0-0.1-0.1-0.1-0.2c0-0.1-0.1-0.2-0.1-0.3V45.4c0-0.9,0-1.8,0-2.6c0-0.8,0-1.5,0-2c0-0.3,0.1-0.5,0.3-0.5h2.7
	c0.1,0,0.2,0.1,0.2,0.3l0,1.4c0.1-0.7,0.4-1.2,0.8-1.6c0.4-0.4,0.8-0.6,1.3-0.6c0.6,0,1.2,0.3,1.7,0.9c0.5,0.6,0.9,1.4,1,2.6
	c0.3-1.2,0.7-2,1.3-2.6c0.6-0.6,1.2-0.9,1.9-0.9c1.1,0,2,0.6,2.7,1.8c0.7,1.2,1.1,2.9,1.1,5.1v11.6c0,0.1,0,0.2-0.1,0.3
	c0,0.1-0.1,0.1-0.2,0.1H330z M373.9,58.8c-0.1,0-0.2-0.1-0.3-0.2c-0.1-0.1-0.1-0.2-0.1-0.3v-10c0-1.7-0.2-3-0.7-3.7
	c-0.4-0.8-1.1-1.2-2-1.2c-1,0-1.9,0.4-2.6,1.3c-0.7,0.9-1,2.1-1,3.8v9.9c0,0.3-0.1,0.5-0.4,0.5h-3c-0.1,0-0.2-0.1-0.3-0.2
	c-0.1-0.1-0.1-0.2-0.1-0.3V45.4c0-0.9,0-1.8,0-2.6c0-0.8,0-1.5-0.1-2c0-0.3,0.1-0.5,0.5-0.5h2.8c0.3,0,0.4,0.1,0.3,0.3l0,1.3
	c0.4-0.6,1-1.1,1.7-1.5c0.7-0.4,1.5-0.6,2.3-0.6c1.7,0,3.2,0.6,4.5,1.9c1.3,1.3,1.9,3.3,1.9,6v10.6c0,0.3-0.1,0.5-0.4,0.5H373.9z
	 M398.4,56.3c-0.7,1-1.5,1.8-2.5,2.3c-0.9,0.5-2,0.8-3.2,0.8c-1.2,0-2.3-0.3-3.2-0.8c-0.9-0.5-1.7-1.2-2.3-2.1
	c-0.6-0.9-1.1-2-1.4-3.1c-0.3-1.2-0.5-2.4-0.5-3.8c0-1.3,0.2-2.6,0.5-3.8c0.3-1.2,0.8-2.2,1.4-3.1c0.6-0.9,1.4-1.6,2.3-2.1
	c0.9-0.5,2-0.8,3.2-0.8c1.2,0,2.3,0.3,3.2,0.8c0.9,0.5,1.7,1.2,2.3,2.1c0.6,0.9,1.1,1.9,1.4,3.1c0.3,1.2,0.5,2.4,0.5,3.8
	c0,1.3-0.2,2.6-0.5,3.7S399,55.4,398.4,56.3z M392.8,43.4c-0.6,0-1.2,0.2-1.6,0.5c-0.4,0.4-0.8,0.8-1.1,1.4c-0.3,0.6-0.5,1.2-0.6,2
	c-0.1,0.7-0.2,1.5-0.2,2.2c0,0.8,0.1,1.5,0.2,2.3c0.2,0.7,0.4,1.4,0.6,2c0.3,0.6,0.6,1.1,1.1,1.4c0.4,0.4,1,0.5,1.6,0.5
	c0.6,0,1.1-0.2,1.5-0.5c0.5-0.4,0.8-0.8,1.1-1.4c0.3-0.6,0.5-1.3,0.6-2c0.2-0.7,0.3-1.5,0.3-2.3c0-0.7-0.1-1.5-0.3-2.2
	c-0.1-0.7-0.4-1.4-0.6-2c-0.3-0.6-0.6-1.1-1.1-1.4C393.9,43.6,393.4,43.4,392.8,43.4z M417.4,58.8c-0.3,0-0.5-0.1-0.6-0.2
	c-0.1-0.1-0.2-0.2-0.2-0.4l-1.3-9l-0.2-2l-0.1,2l-1.3,9c-0.1,0.2-0.2,0.4-0.3,0.4c-0.1,0.1-0.3,0.1-0.5,0.1h-2.5
	c-0.2,0-0.3-0.1-0.5-0.2c-0.1-0.1-0.2-0.2-0.3-0.4l-2.7-17.6c0-0.1,0-0.2,0-0.3c0-0.1,0.3-0.1,0.7-0.1h1.9c0.3,0,0.5,0,0.6,0.1
	c0.1,0.1,0.2,0.2,0.2,0.3l1.1,9.6l0.2,3l0.3-3l1.2-8.2c0-0.1,0.1-0.2,0.2-0.3c0.1-0.1,0.3-0.1,0.6-0.1h2.4c0.4,0,0.7,0.1,0.7,0.4
	l1.2,8.2l0.3,3l0.2-3l1.1-9.6c0-0.1,0.1-0.2,0.2-0.3c0.1-0.1,0.3-0.1,0.5-0.1h2.1c0.4,0,0.6,0,0.6,0.1c0.1,0.1,0.1,0.2,0.1,0.3
	l-2.7,17.6c-0.1,0.2-0.2,0.4-0.3,0.4c-0.1,0.1-0.2,0.1-0.5,0.1H417.4z"/>
</svg>
