<svg xmlns="http://www.w3.org/2000/svg" viewBox="0 0 48 48"><defs><style>.cls-1{fill-rule:evenodd;}.cls-2{fill:#fff;}</style></defs><g id="Layer_1" data-name="Layer 1"><path class="cls-1" d="M0,24A24,24,0,1,0,24,0,24,24,0,0,0,0,24Zm26.09-5.18c.9.9,1.79,1.79,2.7,2.68.46-.45.92-.91,1.37-1.37l1-.95.84-.85h0c.5-.5,1-1,1.51-1.53h.06c.19.23.4.43.61.64s.24.23.35.36L35.72,19l2.39,2.39s0,0,0,.05a.33.33,0,0,1,.12.17c-.78.76-1.54,1.53-2.31,2.3h0c-.82.83-1.64,1.65-2.48,2.46l-4.56-4.57a3980657295327.9,3980657295327.9,0,0,0-.14-.14l-.07.07h0l0,0-2.29,2.29-2.31,2.31-2.13-2.12c-.88-.89-1.76-1.77-2.66-2.65.82-.86,1.67-1.7,2.52-2.54h0c.75-.75,1.51-1.51,2.25-2.27h.06a.9.9,0,0,0,.15.19Zm-14.37.63h0L10,21.22a.69.69,0,0,1-.13.11h0a1.94,1.94,0,0,0-.23.27c.8.8,1.59,1.6,2.39,2.39l2.39,2.39c.8-.79,1.6-1.59,2.39-2.39h0l2.37-2.37v-.06l-3.28-3.28-.53-.53c-.31-.31-.63-.62-.92-.95h-.06C13.48,17.69,12.6,18.57,11.72,19.45ZM19.3,31.24l0,0,1.56-1.57L24,26.48l.07,0h0q2.36,2.37,4.74,4.73a1,1,0,0,1-.15.19l-.1.09-1.7,1.71L25.16,35l-.44.44c-.22.22-.44.45-.66.65-.32-.29-.62-.59-.92-.9l-.65-.65-.79-.79-2.42-2.41A.08.08,0,0,0,19.3,31.24Z"/></g><g id="Layer_2" data-name="Layer 2"><polygon class="cls-2" points="33.49 26.38 38.28 21.62 33.54 16.8 28.79 21.5 33.49 26.38"/><polygon class="cls-2" points="24.03 26.48 28.79 21.5 24.26 16.99 19.14 21.62 24.03 26.48"/><polygon class="cls-2" points="14.38 26.38 9.6 21.61 14.41 16.8 19.14 21.62 14.38 26.38"/><polygon class="cls-2" points="24.03 26.48 19.3 31.24 24.06 36.04 28.84 31.24 24.03 26.48"/></g></svg>